<svg width="49" height="48" viewBox="0 0 49 48" fill="none" xmlns="http://www.w3.org/2000/svg">
<path d="M24.3991 22.0556L24.3989 35.6685C24.3989 40.8265 20.2174 45.008 15.0593 45.008C9.90119 45.008 5.71971 40.8265 5.71971 35.6685C5.71971 35.4042 5.73068 35.1426 5.75221 34.8837C3.80844 32.7956 2.58203 28.711 2.58203 25.3029C2.58203 20.6589 4.85913 16.1437 8.12557 14.3688C8.09423 14.0782 8.07815 13.7831 8.07815 13.4842C8.07815 8.97732 11.7317 5.32373 16.2386 5.32373C18.2455 5.32373 20.0832 6.04819 21.5044 7.2498" stroke="white" stroke-width="3" stroke-linecap="round" stroke-linejoin="round"/>
<path d="M12.4381 19.915C11.2399 19.6419 8.52467 17.8612 8.11499 14.3896" stroke="white" stroke-width="3" stroke-linecap="round" stroke-linejoin="round"/>
<path d="M8.24959 29.9873C7.03053 30.9498 6.05857 33.1312 5.74365 34.8787" stroke="white" stroke-width="3" stroke-linecap="round" stroke-linejoin="round"/>
<path d="M24.3999 35.6683C24.3999 40.8263 28.5814 45.0078 33.7395 45.0078C38.8975 45.0078 43.079 40.8263 43.079 35.6683C43.079 35.404 43.068 35.1424 43.0464 34.8835C44.9904 32.7954 46.2168 28.7108 46.2168 25.3027C46.2168 23.8146 45.983 22.3397 45.5575 20.9639" stroke="white" stroke-width="3" stroke-linecap="round" stroke-linejoin="round"/>
<path d="M40.5493 29.9873C41.7682 30.9498 42.7402 33.1312 43.0553 34.8787" stroke="white" stroke-width="3" stroke-linecap="round" stroke-linejoin="round"/>
<path d="M24.6204 14.7652C23.4172 14.5559 23.4172 12.8287 24.6204 12.6194C28.9793 11.861 32.4463 8.54091 33.3924 4.21886L33.4649 3.88755C33.7252 2.69841 35.4185 2.69101 35.6891 3.87785L35.7772 4.26391C36.7584 8.5656 40.2261 11.8577 44.5732 12.6139C45.7824 12.8243 45.7824 14.5603 44.5732 14.7707C40.2261 15.5269 36.7584 18.819 35.7772 23.1207L35.6891 23.5068C35.4185 24.6936 33.7252 24.6862 33.4649 23.4971L33.3924 23.1658C32.4463 18.8437 28.9793 15.5236 24.6204 14.7652Z" stroke="#FEB534" stroke-width="3" stroke-linecap="round" stroke-linejoin="round"/>
</svg>
