<svg width="49" height="48" viewBox="0 0 49 48" fill="none" xmlns="http://www.w3.org/2000/svg">
<path d="M32.1387 17.478C35.815 17.478 39.3407 18.9384 41.9401 21.538C44.5396 24.1375 46.0001 27.6632 46.0001 31.3394C46.0089 34.068 45.2023 36.7369 43.6844 39.004L46.0001 45.2009L38.205 43.7984C36.3303 44.7126 34.2737 45.1921 32.188 45.2009C30.1023 45.2097 28.0416 44.7475 26.1593 43.8493C24.277 42.9511 22.6217 41.6393 21.3167 40.0124C20.0117 38.3856 19.0906 36.4851 18.6222 34.4526C18.1538 32.4203 18.15 30.3084 18.6112 28.2743C19.0724 26.2403 19.9867 24.3365 21.2859 22.7049C22.5851 21.0733 24.2357 19.756 26.1148 18.851C27.9939 17.946 30.053 17.4767 32.1387 17.478Z" stroke="#FEB534" stroke-width="3" stroke-linecap="round" stroke-linejoin="round"/>
<path d="M34.1281 9.35694C31.9317 6.56206 28.9185 4.52159 25.508 3.51963C22.0975 2.51768 18.4594 2.6041 15.1003 3.76687C11.7412 4.92964 8.82828 7.11087 6.76704 10.0069C4.70582 12.9029 3.59891 16.3696 3.60042 19.9242C3.59031 23.3032 4.58974 26.6081 6.47054 29.4152L3.60042 37.047L10.5148 35.8076" stroke="white" stroke-width="3" stroke-linecap="round" stroke-linejoin="round"/>
</svg>
