<svg width="1280" height="817" viewBox="0 0 1280 817" fill="none" xmlns="http://www.w3.org/2000/svg">
<path opacity="0.5" d="M1189.65 253.965L1284.49 281.928L1231.83 367.38L1326.68 395.342L1274.02 480.794" stroke="white" stroke-width="20.4706" stroke-linecap="round" stroke-linejoin="round"/>
<path d="M1235.57 768.159L1213.1 824.21L1164.19 787.267L1141.72 843.318L1092.8 806.374" stroke="#FFA800" stroke-width="20.4706" stroke-linecap="round" stroke-linejoin="round"/>
<path d="M1148.11 86.1841L1145.52 49.5837L1182.06 56.8028L1179.48 20.2024L1216.02 27.4215" stroke="#FFA800" stroke-width="20.4706" stroke-linecap="round" stroke-linejoin="round"/>
<path opacity="0.5" d="M-9.22654 222.378L24.9853 235.638L2.88209 265.617L37.094 278.877L14.9907 308.856" stroke="white" stroke-width="20.4706" stroke-linecap="round" stroke-linejoin="round"/>
<path d="M603.135 -2.35031L664.963 -39.3767L684.76 31.0508L746.588 -5.97565L766.384 64.4518" stroke="#5EA400" stroke-width="20.4706" stroke-linecap="round" stroke-linejoin="round"/>
<path opacity="0.5" d="M686.995 652.477L685.618 704.832L634.687 689.524L633.31 741.879L582.379 726.571" stroke="white" stroke-width="20.4706" stroke-linecap="round" stroke-linejoin="round"/>
<path d="M-3.78802 799.311L62.2261 735.841L106.815 817.445L172.829 753.975L217.417 835.578" stroke="#FFA800" stroke-width="20.4706" stroke-linecap="round" stroke-linejoin="round"/>
<path d="M56.6282 71.8128L62.9252 17.1987L114.758 37.9292L121.055 -16.6849L172.888 4.0457" stroke="#FFA800" stroke-width="20.4706" stroke-linecap="round" stroke-linejoin="round"/>
</svg>
