<svg width="90" height="90" viewBox="0 0 90 90" fill="none" xmlns="http://www.w3.org/2000/svg">
<path d="M45.6329 38.3196C45.024 37.7786 44.5322 37.1189 44.1877 36.3809C43.8431 35.6429 43.6529 34.8423 43.629 34.0282C43.6051 33.2141 43.7479 32.4037 44.0484 31.6467C44.349 30.8897 44.8011 30.2022 45.377 29.6263C45.9529 29.0504 46.6405 28.5982 47.3974 28.2977C48.1543 27.9971 48.9647 27.8544 49.7789 27.8784C50.5931 27.9023 51.3936 28.0924 52.1316 28.437C52.8695 28.7816 53.5294 29.2734 54.0704 29.8822C54.6695 30.4685 55.1367 31.1755 55.4415 31.9564C55.5407 32.1924 55.6943 32.4014 55.8898 32.5664C56.0852 32.7314 56.3173 32.8477 56.5665 32.9056C56.8091 32.9588 57.0612 32.9513 57.3006 32.8839C57.5396 32.8164 57.7583 32.6911 57.9376 32.5189L62.5782 27.8431C62.8598 27.5651 63.0834 27.234 63.2364 26.8688C63.3889 26.5037 63.4673 26.1119 63.4673 25.7161C63.4673 25.3204 63.3889 24.9286 63.2364 24.5635C63.0834 24.1983 62.8598 23.8672 62.5782 23.5892L57.6564 18.7025C58.6815 18.4403 59.617 17.9058 60.3634 17.1556C60.9224 16.5973 61.3661 15.9342 61.6688 15.2043C61.9714 14.4743 62.1272 13.6919 62.1272 12.9017C62.1272 12.1115 61.9714 11.3291 61.6688 10.5992C61.3661 9.86926 60.9224 9.20614 60.3634 8.64779C59.8051 8.08866 59.1421 7.6451 58.4119 7.34247C57.682 7.03981 56.8998 6.88403 56.1095 6.88403C55.3192 6.88403 54.537 7.03981 53.8071 7.34247C53.0769 7.6451 52.4139 8.08866 51.8556 8.64779C51.1054 9.39426 50.571 10.3296 50.3087 11.3549L45.3165 6.32751C45.0384 6.04581 44.7073 5.82215 44.3423 5.6695C43.9771 5.51684 43.5854 5.43823 43.1896 5.43823C42.7937 5.43823 42.4021 5.51684 42.0368 5.6695C41.6719 5.82215 41.3407 6.04581 41.0626 6.32751L36.7384 10.6166C36.5765 10.7742 36.454 10.9677 36.3808 11.1815C36.3075 11.3952 36.2854 11.6232 36.3165 11.847C36.3365 12.0726 36.4069 12.2908 36.5225 12.4855C36.6381 12.6802 36.796 12.8465 36.9845 12.972C37.3389 13.1792 37.6592 13.4401 37.9337 13.7454C38.5426 14.2865 39.0341 14.9463 39.379 15.6842C39.7235 16.4222 39.9137 17.2228 39.9376 18.0369C39.9615 18.851 39.8188 19.6615 39.5182 20.4185C39.2176 21.1754 38.7655 21.863 38.1896 22.4389C37.6137 23.0148 36.9261 23.4669 36.1692 23.7675C35.4122 24.0681 34.6018 24.2108 33.7877 24.1868C32.9736 24.1628 32.1729 23.9727 31.435 23.6281C30.697 23.2835 30.0372 22.7917 29.4962 22.183C29.2175 21.8841 28.9592 21.567 28.7228 21.2338C28.5992 21.0435 28.4334 20.8842 28.2383 20.7684C28.0432 20.6525 27.824 20.5832 27.5978 20.5658C27.3793 20.5347 27.1565 20.5568 26.9484 20.6303C26.7403 20.7037 26.553 20.8263 26.4025 20.9877L22.0782 25.3119C21.7965 25.5899 21.5729 25.921 21.4202 26.2861C21.2676 26.6513 21.189 27.0431 21.189 27.4388C21.189 27.8346 21.2676 28.2264 21.4202 28.5915C21.5729 28.9566 21.7965 29.2878 22.0782 29.5658L39.3048 46.7923C39.5829 47.0739 39.9141 47.2978 40.279 47.4504C40.6443 47.603 41.0359 47.6817 41.4318 47.6817C41.8276 47.6817 42.2193 47.603 42.5845 47.4504C42.9495 47.2978 43.2806 47.0739 43.5587 46.7923L48.2345 42.1517C48.4068 41.9674 48.5316 41.7438 48.5977 41.5002C48.6638 41.2569 48.6694 41.001 48.6138 40.7549C48.5586 40.5085 48.4437 40.2799 48.2795 40.0883C48.1153 39.8967 47.9068 39.748 47.672 39.6556C46.9066 39.3571 46.2123 38.9018 45.6329 38.3196Z" stroke="#FEB534" stroke-width="3" stroke-linecap="round" stroke-linejoin="round"/>
<path d="M15.9961 84.5508L8.96484 75.6914C6.71629 72.887 5.47784 69.4069 5.44922 65.8125V47.6367C5.44922 46.2382 6.00481 44.8966 6.99377 43.9077C7.98272 42.9187 9.32407 42.3633 10.7227 42.3633C12.1212 42.3633 13.4626 42.9187 14.4515 43.9077C15.4405 44.8966 15.9961 46.2382 15.9961 47.6367V61.4883" stroke="#3C3843" stroke-width="3" stroke-linecap="round" stroke-linejoin="round"/>
<path d="M31.8164 84.5512V73.5121C31.8226 70.3924 30.8918 67.3426 29.1445 64.7582L25.1367 58.7113C24.7894 58.1337 24.328 57.6331 23.7808 57.2401C23.2336 56.847 22.6119 56.5696 21.9539 56.4248C21.2958 56.2799 20.6152 56.2712 19.9535 56.3981C19.2918 56.5253 18.663 56.7858 18.1054 57.1645C17.1055 57.8275 16.3844 58.8354 16.0797 59.996C15.775 61.1565 15.9079 62.3883 16.4531 63.4574L21.2695 71.3676" stroke="#3C3843" stroke-width="3" stroke-linecap="round" stroke-linejoin="round"/>
<path d="M74.0039 84.5508L81.0352 75.6914C83.2961 72.8937 84.536 69.4093 84.5508 65.8125V47.6367C84.5508 46.2382 83.9953 44.8966 83.0064 43.9077C82.0174 42.9187 80.6759 42.3633 79.2773 42.3633C77.8788 42.3633 76.5373 42.9187 75.5483 43.9077C74.5594 44.8966 74.0039 46.2382 74.0039 47.6367V61.2773" stroke="#3C3843" stroke-width="3" stroke-linecap="round" stroke-linejoin="round"/>
<path d="M58.1836 84.5503V73.5112C58.1773 70.3915 59.1082 67.342 60.8555 64.7573L64.8633 58.7105C65.2071 58.1293 65.6666 57.6248 66.2137 57.229C66.7607 56.8328 67.3833 56.5536 68.0425 56.4084C68.702 56.2632 69.3844 56.2555 70.0471 56.3856C70.7098 56.5153 71.3387 56.7804 71.8946 57.1636C72.9004 57.8214 73.6288 58.8268 73.94 59.988C74.2514 61.1489 74.1238 62.3839 73.5821 63.4566L68.7305 71.3667" stroke="#3C3843" stroke-width="3" stroke-linecap="round" stroke-linejoin="round"/>
</svg>
