<svg width="1280" height="777" viewBox="0 0 1280 777" fill="none" xmlns="http://www.w3.org/2000/svg">
  <path d="M1199.65 193.965L1294.49 221.928L1241.84 307.38L1336.68 335.342L1284.02 420.794" stroke="#5EA400" stroke-width="20.4706" stroke-linecap="round" stroke-linejoin="round"/>
  <path d="M1235.57 718.159L1213.1 774.21L1164.18 737.267L1141.71 793.318L1092.8 756.374" stroke="#FFA800" stroke-width="20.4706" stroke-linecap="round" stroke-linejoin="round"/>
  <path d="M1148.11 86.1841L1145.52 49.5837L1182.06 56.8028L1179.48 20.2024L1216.02 27.4215" stroke="#FFA800" stroke-width="20.4706" stroke-linecap="round" stroke-linejoin="round"/>
  <path d="M-19.2263 212.378L14.9856 225.638L-7.11767 255.617L27.0942 268.877L4.99096 298.856" stroke="#5EA400" stroke-width="20.4706" stroke-linecap="round" stroke-linejoin="round"/>
  <path d="M603.136 -2.35031L664.964 -39.3767L684.761 31.0508L746.589 -5.97565L766.385 64.4518" stroke="#5EA400" stroke-width="20.4706" stroke-linecap="round" stroke-linejoin="round"/>
  <path d="M636.996 722.477L635.619 774.832L584.689 759.524L583.312 811.879L532.381 796.571" stroke="#5EA400" stroke-width="20.4706" stroke-linecap="round" stroke-linejoin="round"/>
  <path d="M-3.78851 799.311L62.2256 735.841L106.814 817.445L172.828 753.975L217.417 835.578" stroke="#FFA800" stroke-width="20.4706" stroke-linecap="round" stroke-linejoin="round"/>
  <path d="M56.6282 71.8128L62.9252 17.1987L114.758 37.9292L121.055 -16.6849L172.888 4.0457" stroke="#FFA800" stroke-width="20.4706" stroke-linecap="round" stroke-linejoin="round"/>
  </svg>
