<svg xmlns="http://www.w3.org/2000/svg" width="1709.257" height="1152.023" viewBox="0 0 452.241 304.806" xmlns:v="https://vecta.io/nano"><path d="M297.328 288.79c-.146-.055-3.598-.464-7.673-.909l-8.07-.938c-.364-.07-3.415-.473-6.781-.895-6.656-.834-7.635-1.126-8.772-2.616-.566-.742-.726-1.28-.807-2.708-.125-2.217.402-3.463 1.88-4.441 1.548-1.025 3.195-1.016 12.363.067l13.622 1.427c.155-.155-.559-5.574-2.124-16.099-1.065-7.165-1.065-8.502-.003-10.035.88-1.269 1.982-1.884 3.66-2.04.807-.075 5.602.373 11.545 1.078 8.964 1.064 12.216 1.369 12.183 1.141a1020.42 1020.42 0 0 0-.372-2.315c-1.138-7.054-3.058-20.276-3.058-21.065 0-.507.168-1.243.374-1.636.88-1.68 3.217-3.235 4.843-3.222 1.707.013 3.954 1.675 4.615 3.413.291.765 1.112 5.418 1.544 8.752.16 1.237.911 6.178 1.668 10.98.873 5.54 1.376 9.561 1.376 11.001 0 2.079-.062 2.352-.741 3.241-.907 1.189-1.94 1.748-3.572 1.935-1.345.154-9.103-.587-17.094-1.632-2.752-.36-5.342-.655-5.755-.655-1.091 0-1.221-1.337 1.83 18.807.607 4.009.659 4.802.378 5.743-.691 2.307-2.798 3.777-5.357 3.74-.791-.012-1.557-.065-1.702-.12zm82.643-156.46c-1.28-.812-2.178-2.038-2.455-3.352-.175-.83.597-6.878 1.975-15.466l1.437-9.187c.404-2.663.855-4.691 1.187-5.342a5.17 5.17 0 0 1 5.696-2.67c.673.151 3.175 1.165 5.561 2.254l4.484 1.98c.081 0 2.066.893 4.413 1.984s4.417 1.984 4.601 1.984.4-.171.481-.381.756-4.406 1.501-9.327l1.616-10.128c.386-1.75 1.117-2.74 2.633-3.565 2.215-1.206 2.956-1.027 11.372 2.748l10.966 4.873c2.037.889 4.772 2.154 6.077 2.811 2.163 1.09 2.432 1.312 3.043 2.512 1.272 2.5.706 4.997-1.518 6.692-.836.637-1.167.719-2.819.697-1.709-.023-2.173-.165-5.312-1.625-6.082-2.828-14.101-6.396-14.734-6.555-.613-.154-.619-.127-1.76 7.068l-1.619 10.176c-.549 3.423-1.072 4.636-2.482 5.761-.925.737-1.189.81-2.91.802-1.858-.009-2.053-.08-10.36-3.792l-9.243-4.162c-.478-.233-.871-.285-1.022-.134-.135.135-.582 2.548-.992 5.362l-1.023 6.439c-.152.728-.463 2.752-.692 4.498-.656 5.011-1.136 6.047-3.314 7.151-1.777.9-3.25.867-4.787-.108zM233.563 86.003l-6.085-1.47-3.704-.93c-.437-.133-3.354-.842-6.482-1.574-8.771-2.053-9.487-2.366-10.587-4.64-1.286-2.656-.228-5.529 2.49-6.763.597-.271 1.396-.496 1.776-.499.721-.006 15.658 3.498 19.551 4.586 1.237.346 2.308.597 2.381.557s.04-2.018-.073-4.396-.172-7.659-.132-11.733c.07-7.185.09-7.433.664-8.237.717-1.005 2.625-1.949 3.939-1.949.956 0 18.066 3.929 19.498 4.477.41.157 1.104.285 1.543.285h.798l-.192-11.185c-.169-9.848-.143-11.279.219-11.972.864-1.656 2.97-3.036 4.631-3.036 1.227 0 3.46 1.274 4.204 2.398.599.905.692 1.402.897 4.796.464 7.671.789 25.547.49 26.943-.539 2.511-2.684 4.141-5.119 3.887-1.425-.148-9.037-1.874-13.641-3.092-4.216-1.116-7.397-1.715-7.647-1.439-.12.133-.121 3.099-.001 6.592l.295 11.021c-.042 2.392-.344 4.679-.764 5.562-.494 1.038-1.959 2.44-3.997 2.522-1.273.052-2.679-.15-4.952-.71zM30.76 42.107c-2.488-1.013-14.144-5.97-17.462-7.427l-4.702-2.012C5.247 31.257 4.014 30.197 3.5 28.29c-.636-2.363-.179-3.145 7.407-12.673 6.202-7.789 6.263-7.874 5.916-8.221-.24-.24-1.918-.969-12.623-5.485L0 .139 13.155.07 26.311.001l1.556.829c1.288.686 1.671 1.061 2.225 2.171.847 1.7.845 2.897-.008 4.608-.372.747-3.527 4.906-7.011 9.244l-6.335 8.056c0 .094.208.235.463.314.533.165 3.439 1.388 12.369 5.205 3.492 1.493 6.726 2.995 7.185 3.338 1.765 1.319 2.573 3.622 1.942 5.534-.429 1.299-1.933 2.942-2.993 3.27-1.995.617-2.38.581-4.943-.463z" fill="#5ea400"/><path d="M32.202 302.89c-.866-1.054-3.823-4.536-6.572-7.739-6.355-7.404-7.23-8.582-7.445-10.018-.32-2.136.768-4.423 2.54-5.34 1.045-.54 3.623-.499 4.673.076 1.146.627 2.548 2.203 14.883 16.735l6.571 7.739c.375.439.048.463-6.34.463h-6.735zm24.767 1.717c.008-.109.892-1.449 1.964-2.977l6.401-9.333c11.248-16.559 10.635-15.822 13.31-16.015 2.835-.205 2.675-.358 15.534 14.765l9.185 10.782 2.548 2.977h-6.703-6.703l-5.711-6.681-6.508-7.436-.796-.756-1.538 2.078c-.846 1.143-2.539 3.567-3.762 5.386l-3.662 5.358-1.438 2.051h-6.067c-3.337 0-6.06-.089-6.052-.198zm54.127-.123c.524-.848 12.568-18.681 13.006-19.258.276-.364 1.841-2.626 3.477-5.027 4.28-6.282 4.936-6.879 7.557-6.879 1.787 0 3.272.685 4.148 1.912.516.724.618 1.194.618 2.864v1.999l-2.833 4.219-6.178 9.114-5.502 8.129-2.156 3.235-6.167.007c-4.771.005-6.122-.066-5.969-.315zm308.072-47.027c-3.274-1.745-3.9-5.69-1.288-8.117 1.322-1.229 1.238-1.21 17.825-3.95 10.359-1.711 9.999-1.624 9.809-2.382-.087-.347-1.416-3.343-2.952-6.657-6.86-14.797-7.783-16.929-7.782-17.966.004-2.534 1.295-4.452 3.428-5.091.942-.282 13.155-2.416 13.829-2.416.112 0 .204 2.313.204 5.141v5.141l-1.389.265-2.381.428c-.546.089-.992.314-.992.498s1.072 2.669 2.381 5.521l2.381 5.185v9.933 9.933l-.86.148-4.829.791-7.805 1.322c-7.37 1.304-16.873 2.791-17.759 2.779-.492-.006-1.31-.234-1.82-.505zM315.452 151.812c-1.519-.812-2.663-2.418-2.84-3.988-.171-1.514.447-2.861 2.391-5.218 2.32-2.813 3.359-4.242 3.359-4.622 0-.197-.268-.441-.595-.542-1.624-.499-7.037-3.154-7.697-3.775-1.616-1.523-1.98-3.531-1.024-5.647.285-.63 1.605-2.512 2.932-4.181s2.414-3.114 2.414-3.21-.685-.447-1.521-.779-2.741-1.18-4.231-1.885c-3.442-1.629-4.169-2.54-4.169-5.227 0-2.127.689-3.407 2.361-4.387 2.158-1.264 3.705-.848 13.289 3.578 1.186.548 2.567 1.131 3.068 1.297 2.932.968 4.415 2.842 4.426 5.593.007 1.723-.398 2.448-3.537 6.332-1.116 1.381-1.995 2.666-1.955 2.856s1.621 1.008 3.513 1.818c4.219 1.806 5.033 2.397 5.895 4.28.615 1.343.644 1.568.352 2.674-.439 1.659-1.032 2.499-6.339 8.98-4.916 6.004-5.316 6.345-7.713 6.575-.906.087-1.476-.038-2.381-.522zM131.698 48.57c-2.157-1.313-3.147-4.237-2.112-6.238.551-1.066 4.165-4.692 15.011-15.061l8.136-7.943c0-.091-.506-.412-1.124-.714-1.516-.74-24.445-14.514-25.538-15.341-1.007-.762-1.541-1.519-1.791-2.538L124.1.006h8.09c7.374 0 8.167.043 8.958.488.953.536 7.65 4.52 16.875 10.039 3.274 1.959 6.237 3.815 6.583 4.124 1.439 1.284 2.026 4.007 1.249 5.796-.426.981-3.367 3.907-18.019 17.923-5.821 5.568-10.966 10.286-11.435 10.483-1.385.584-3.481.454-4.705-.29zm226.219-35.355l-4.366-1.562c-2.691-.888-4.361-1.764-5.212-2.732-.777-.884-1.402-2.385-1.399-3.358.002-.801 1.267-3.085 2.095-3.781.776-.653 1.046-.717 3.048-.717 1.388 0 2.559.151 3.181.411 1.315.549 1.826.409 1.991-.547l.137-.791 10.106-.069L377.604 0l-.134 1.392c-.074.766-.189 1.76-.256 2.209-.143.954-1.689 2.862-2.773 3.423-1.108.573-3.079.477-5.231-.255l-1.897-.645-.118.579c-.065.319-.237 1.459-.382 2.535-.289 2.139-1.068 3.432-2.614 4.338-1.565.917-3.077.831-6.281-.361z" fill="#ffa800"/></svg>