<svg width="90" height="90" viewBox="0 0 90 90" fill="none" xmlns="http://www.w3.org/2000/svg">
<path d="M23.9062 59.9414H13.3594C12.6629 59.9505 11.9975 60.2311 11.505 60.7236C11.0125 61.2162 10.7318 61.8817 10.7227 62.5781V84.5508H26.543V62.5781C26.5339 61.8817 26.2531 61.2162 25.7606 60.7236C25.2681 60.2311 24.6027 59.9505 23.9062 59.9414Z" stroke="white" stroke-width="3" stroke-linecap="round" stroke-linejoin="round"/>
<path d="M50.2734 45.8789H39.7266C39.0301 45.888 38.3646 46.1686 37.8722 46.6611C37.3797 47.1537 37.0989 47.8192 37.0898 48.5156V84.5508H52.9102V48.5156C52.901 47.8192 52.6205 47.1537 52.1279 46.6611C51.6354 46.1686 50.9699 45.888 50.2734 45.8789Z" stroke="white" stroke-width="3" stroke-linecap="round" stroke-linejoin="round"/>
<path d="M76.6406 31.8164H66.0938C65.3973 31.8255 64.7318 32.1062 64.2393 32.5987C63.7467 33.0913 63.4662 33.7566 63.457 34.4531V84.5508H79.2773V34.4531C79.2682 33.7566 78.9877 33.0913 78.4951 32.5987C78.0026 32.1062 77.3371 31.8255 76.6406 31.8164Z" stroke="white" stroke-width="3" stroke-linecap="round" stroke-linejoin="round"/>
<path d="M5.44922 84.5508H84.5508" stroke="#FEB534" stroke-width="3" stroke-linecap="round" stroke-linejoin="round"/>
<path d="M17.5081 35.2954L74.0043 9.63135" stroke="#FEB534" stroke-width="3" stroke-linecap="round" stroke-linejoin="round"/>
<path d="M69.8201 20.8477L74.0037 9.63281L62.824 5.44922" stroke="#FEB534" stroke-width="3" stroke-linecap="round" stroke-linejoin="round"/>
</svg>
