<svg width="78" height="78" viewBox="0 0 78 78" fill="none" xmlns="http://www.w3.org/2000/svg">
<path d="M59.9901 32.335C59.9895 37.5144 58.5325 42.5889 55.7851 46.9798C53.038 51.3703 49.1112 54.8998 44.4534 57.1652C39.796 59.4305 34.595 60.34 29.445 59.7904C24.295 59.2407 19.4034 57.2536 15.3289 54.0562" stroke="white" stroke-width="3" stroke-linecap="round" stroke-linejoin="round"/>
<path d="M4.87531 34.8299C4.80219 34.0176 4.76563 33.1868 4.76563 32.3377C4.7648 26.9055 6.36634 21.5938 9.36979 17.0675C12.3732 12.5411 16.6451 9.00131 21.6506 6.89111C26.6561 4.78092 32.1729 4.19412 37.5103 5.20417C42.8478 6.21421 47.7688 8.77624 51.6569 12.5695" stroke="white" stroke-width="3" stroke-linecap="round" stroke-linejoin="round"/>
<path d="M51.9033 51.8604L73.2771 73.2768" stroke="white" stroke-width="3" stroke-linecap="round" stroke-linejoin="round"/>
<path d="M73.2774 21.6968V7.00781H58.6311" stroke="#FEB534" stroke-width="3" stroke-linecap="round" stroke-linejoin="round"/>
<path d="M4.72266 52.7109L30.0727 27.3701C30.6141 26.83 31.3477 26.5266 32.1125 26.5266C32.8774 26.5266 33.611 26.83 34.1524 27.3701L41.6051 34.8258C41.8729 35.0939 42.1907 35.3066 42.5408 35.4519C42.8909 35.5969 43.2659 35.6719 43.645 35.6719C44.024 35.6719 44.3991 35.5969 44.7491 35.4519C45.0992 35.3066 45.417 35.0939 45.6848 34.8258L73.2773 7.00781" stroke="#FEB534" stroke-width="3" stroke-linecap="round" stroke-linejoin="round"/>
</svg>
