<svg width="49" height="48" viewBox="0 0 49 48" fill="none" xmlns="http://www.w3.org/2000/svg">
<path d="M6.31891 8.85543V23.1318C6.31895 27.6441 7.68639 32.0506 10.241 35.7704C12.7955 39.4902 16.4173 42.3484 20.6289 43.9686L22.5808 44.7186C23.8805 45.2185 25.3198 45.2185 26.6195 44.7186L28.5714 43.9686C32.783 42.3484 36.4048 39.4902 38.9593 35.7704C41.514 32.0506 42.8814 27.6441 42.8814 23.1318V8.85543C42.885 8.3182 42.7333 7.79138 42.4445 7.33833C42.1558 6.88529 41.7423 6.52529 41.2539 6.30168C36.0035 4.01003 30.3285 2.85291 24.6002 2.90605C18.8718 2.85291 13.1967 4.01003 7.94641 6.30168C7.45794 6.52529 7.04446 6.88529 6.75573 7.33833C6.467 7.79138 6.31531 8.3182 6.31891 8.85543Z" stroke="white" stroke-width="3" stroke-linecap="round" stroke-linejoin="round"/>
<path d="M34.3502 22.5938C34.0808 24.4609 33.2803 26.2114 32.0443 27.6367C30.8083 29.0619 29.1889 30.102 27.3786 30.6332C25.5683 31.1642 23.6436 31.164 21.8335 30.6322C20.0234 30.1007 18.4042 29.0601 17.1686 27.6345C15.933 26.2088 15.1332 24.4581 14.8642 22.5909C14.5953 20.7236 14.8686 18.8183 15.6516 17.1019C16.4346 15.3856 17.6943 13.9303 19.2807 12.9094C20.8673 11.8886 22.7136 11.3451 24.6002 11.3438" stroke="#FEB534" stroke-width="3" stroke-linecap="round" stroke-linejoin="round"/>
<path d="M34.4437 13.8047L25.47 22.7784C25.239 23.0089 24.9262 23.1382 24.6 23.1382C24.2737 23.1382 23.961 23.0089 23.73 22.7784L20.9175 19.9566" stroke="#FEB534" stroke-width="3" stroke-linecap="round" stroke-linejoin="round"/>
</svg>
