<svg width="78" height="78" viewBox="0 0 78 78" fill="none" xmlns="http://www.w3.org/2000/svg">
<path d="M31.8128 24.0122C21.1156 16.7137 11.1428 22.2851 2.78564 30.8651L21.2828 42.008" stroke="white" stroke-width="3" stroke-linecap="round" stroke-linejoin="round"/>
<path d="M53.9874 46.1875C61.2859 56.8844 55.7144 66.8573 47.1346 75.2144L35.9917 56.7173" stroke="white" stroke-width="3" stroke-linecap="round" stroke-linejoin="round"/>
<path d="M21.2827 41.9533L36.047 56.7176C47.8584 49.6418 61.2855 42.789 67.4141 36.4375C80.6741 23.1775 72.9855 5.01471 72.9855 5.01471C72.9855 5.01471 54.8227 -2.67386 41.5627 10.5861C35.2113 16.7147 28.3027 30.1976 21.2827 41.9533Z" stroke="white" stroke-width="3" stroke-linecap="round" stroke-linejoin="round"/>
<path d="M29.4175 27.9688L50.0318 48.583" stroke="white" stroke-width="3" stroke-linecap="round" stroke-linejoin="round"/>
<path d="M58.5001 22.2858C60.0383 22.2858 61.2858 21.0386 61.2858 19.5001C61.2858 17.9616 60.0383 16.7144 58.5001 16.7144C56.9618 16.7144 55.7144 17.9616 55.7144 19.5001C55.7144 21.0386 56.9618 22.2858 58.5001 22.2858Z" stroke="white" stroke-width="3" stroke-linecap="round" stroke-linejoin="round"/>
<path d="M20.5028 69.308C17.2714 72.428 2.78564 75.2137 2.78564 75.2137C2.78564 75.2137 5.57136 60.728 8.69136 57.4966C9.45643 56.6759 10.3791 56.0173 11.4042 55.5604C12.4293 55.1036 13.536 54.858 14.6581 54.8382C15.7802 54.8184 16.8948 55.0249 17.9355 55.4452C18.976 55.8653 19.9214 56.4909 20.7149 57.2849C21.5085 58.0782 22.1341 59.0237 22.5545 60.0644C22.9748 61.1046 23.1812 62.2195 23.1614 63.3416C23.1416 64.4636 22.896 65.5701 22.4392 66.5953C21.9824 67.6204 21.3238 68.543 20.5028 69.308Z" stroke="#FEB534" stroke-width="3" stroke-linecap="round" stroke-linejoin="round"/>
</svg>
