<svg width="49" height="48" viewBox="0 0 49 48" fill="none" xmlns="http://www.w3.org/2000/svg">
<path d="M35.45 15.5625L38.9656 12.0469" stroke="#FEB534" stroke-width="3" stroke-linecap="round" stroke-linejoin="round"/>
<path d="M38.2625 11.3438L39.6687 12.75" stroke="#FEB534" stroke-width="3" stroke-linecap="round" stroke-linejoin="round"/>
<path d="M24.2 11.3438V2.90625" stroke="#FEB534" stroke-width="3" stroke-linecap="round" stroke-linejoin="round"/>
<path d="M28.4187 2.90625H19.9812" stroke="#FEB534" stroke-width="3" stroke-linecap="round" stroke-linejoin="round"/>
<path d="M24.2 29.6249L17.1687 21.8418" stroke="#FEB534" stroke-width="3" stroke-linecap="round" stroke-linejoin="round"/>
<path d="M7.32495 28.2188C7.32495 30.4348 7.76143 32.6291 8.60948 34.6766C9.45754 36.7239 10.7005 38.5841 12.2675 40.1512C13.8345 41.7182 15.6948 42.9611 17.7422 43.8092C19.7895 44.6573 21.9839 45.0938 24.2 45.0938C26.416 45.0938 28.6103 44.6573 30.6578 43.8092C32.7051 42.9611 34.5653 41.7182 36.1325 40.1512C37.6994 38.5841 38.9423 36.7239 39.7904 34.6766C40.6385 32.6291 41.075 30.4348 41.075 28.2188C41.075 26.0027 40.6385 23.8084 39.7904 21.7609C38.9423 19.7136 37.6994 17.8533 36.1325 16.2863C34.5653 14.7193 32.7051 13.4763 30.6578 12.6283C28.6103 11.7802 26.416 11.3438 24.2 11.3438C21.9839 11.3438 19.7895 11.7802 17.7422 12.6283C15.6948 13.4763 13.8345 14.7193 12.2675 16.2863C10.7005 17.8533 9.45754 19.7136 8.60948 21.7609C7.76143 23.8084 7.32495 26.0027 7.32495 28.2188Z" stroke="white" stroke-width="3" stroke-linecap="round" stroke-linejoin="round"/>
</svg>
