<svg width="90" height="90" viewBox="0 0 90 90" fill="none" xmlns="http://www.w3.org/2000/svg">
<path d="M83.6861 48.079C83.0968 55.4855 80.3939 62.5672 75.8981 68.4826C71.4023 74.3982 65.3034 78.8988 58.3249 81.4494C51.3467 84.0006 43.7828 84.495 36.5319 82.874C29.2811 81.2524 22.648 77.5841 17.4207 72.3037C12.1935 67.024 8.59173 60.3542 7.04347 53.0874C5.49521 45.8206 6.06548 38.2621 8.68654 31.3099C11.3076 24.3577 15.8693 18.304 21.8296 13.868C27.7899 9.43202 34.8983 6.80021 42.3104 6.28528" stroke="white" stroke-width="3" stroke-linecap="round" stroke-linejoin="round"/>
<path d="M61.6578 51.5077C60.5797 54.2828 58.8268 56.7453 56.5577 58.6727C54.2886 60.6 51.5749 61.9314 48.6619 62.5463C45.7489 63.1612 42.7286 63.0406 39.8741 62.1948C37.0196 61.3491 34.4209 59.8052 32.313 57.7027C30.2051 55.6003 28.6545 53.0055 27.8015 50.1532C26.9484 47.3009 26.8198 44.2809 27.4273 41.3663C28.0348 38.4518 29.3592 35.7346 31.2807 33.4606C33.2022 31.1865 35.6602 29.4273 38.4325 28.342" stroke="white" stroke-width="3" stroke-linecap="round" stroke-linejoin="round"/>
<path d="M45.0001 45.0007L59.9264 30.0743" stroke="#FEB534" stroke-width="3" stroke-linecap="round" stroke-linejoin="round"/>
<path d="M71.8674 33.0589L59.9263 30.0737L56.9411 18.1326L68.8821 6.19153L71.8674 18.1326L83.8085 21.1179L71.8674 33.0589Z" stroke="#FEB534" stroke-width="3" stroke-linecap="round" stroke-linejoin="round"/>
</svg>
