<svg width="45" height="46" viewBox="0 0 45 46" fill="none" xmlns="http://www.w3.org/2000/svg">
<path d="M43.432 24.6415C43.1177 28.5917 41.6762 32.3686 39.2784 35.5235C36.8806 38.6785 33.6279 41.0788 29.906 42.4391C26.1843 43.7997 22.1502 44.0634 18.2831 43.1989C14.416 42.334 10.8783 40.3776 8.09047 37.5614C5.3026 34.7455 3.38168 31.1883 2.55594 27.3127C1.7302 23.4371 2.03434 19.4059 3.43224 15.698C4.83014 11.9902 7.26303 8.76155 10.4419 6.39569C13.6207 4.02982 17.4119 2.62619 21.365 2.35156" stroke="white" stroke-width="3" stroke-linecap="round" stroke-linejoin="round"/>
<path d="M31.6838 26.4703C31.1088 27.9503 30.1739 29.2637 28.9637 30.2916C27.7536 31.3195 26.3062 32.0296 24.7527 32.3576C23.1991 32.6855 21.5882 32.6212 20.0658 32.1701C18.5434 31.719 17.1574 30.8956 16.0332 29.7743C14.909 28.653 14.0821 27.2691 13.6271 25.7479C13.1721 24.2266 13.1036 22.616 13.4275 21.0616C13.7515 19.5071 14.4579 18.058 15.4827 16.8452C16.5075 15.6323 17.8184 14.6941 19.297 14.1152" stroke="white" stroke-width="3" stroke-linecap="round" stroke-linejoin="round"/>
<path d="M22.7998 22.9998L30.7605 15.0391" stroke="#FEC343" stroke-width="3" stroke-linecap="round" stroke-linejoin="round"/>
<path d="M37.1287 16.631L30.7601 15.0389L29.168 8.67033L35.5365 2.30176L37.1287 8.67033L43.4973 10.2625L37.1287 16.631Z" stroke="#FEC343" stroke-width="3" stroke-linecap="round" stroke-linejoin="round"/>
</svg>
