<svg width="90" height="90" viewBox="0 0 90 90" fill="none" xmlns="http://www.w3.org/2000/svg">
<path d="M15 52.5C14.2903 52.5024 13.5946 52.3034 12.9935 51.9262C12.3925 51.5489 11.9108 51.0088 11.6045 50.3687C11.2982 49.7286 11.1798 49.0147 11.2631 48.31C11.3464 47.6052 11.6279 46.9386 12.075 46.3875L49.2 8.1375C49.4785 7.81606 49.8579 7.59884 50.2761 7.5215C50.6944 7.44416 51.1264 7.5113 51.5015 7.71189C51.8765 7.91248 52.1722 8.23461 52.34 8.62541C52.5078 9.0162 52.5378 9.45243 52.425 9.8625L45.225 32.4375C45.0127 33.0057 44.9414 33.6169 45.0172 34.2188C45.093 34.8206 45.3137 35.3951 45.6603 35.8928C46.0069 36.3906 46.4691 36.7969 47.0073 37.0769C47.5454 37.3568 48.1434 37.502 48.75 37.5H75C75.7096 37.4976 76.4053 37.6966 77.0064 38.0738C77.6074 38.4511 78.0891 38.9912 78.3954 39.6313C78.7017 40.2714 78.8201 40.9853 78.7368 41.69C78.6536 42.3948 78.372 43.0614 77.925 43.6125L40.8 81.8625C40.5215 82.1839 40.142 82.4012 39.7238 82.4785C39.3056 82.5558 38.8735 82.4887 38.4985 82.2881C38.1235 82.0875 37.8278 81.7654 37.66 81.3746C37.4921 80.9838 37.4622 80.5476 37.575 80.1375L44.775 57.5625C44.9873 56.9943 45.0586 56.383 44.9828 55.7812C44.9069 55.1794 44.6862 54.6049 44.3396 54.1071C43.993 53.6094 43.5308 53.2031 42.9927 52.9231C42.4546 52.6432 41.8565 52.498 41.25 52.5H15Z" stroke="#FEB534" stroke-width="3" stroke-linecap="round" stroke-linejoin="round"/>
</svg>
