<svg width="90" height="90" viewBox="0 0 90 90" fill="none" xmlns="http://www.w3.org/2000/svg">
<path d="M12.1619 15.1465C10.5784 15.1465 9.05983 15.7755 7.94013 16.8952C6.82044 18.0149 6.19141 19.5335 6.19141 21.117V77.8371C6.19141 79.4205 6.82044 80.9394 7.94013 82.0589C9.05983 83.1783 10.5784 83.8076 12.1619 83.8076H77.8378C79.4212 83.8076 80.9401 83.1783 82.0596 82.0589C83.1791 80.9394 83.8084 79.4205 83.8084 77.8371V21.117C83.8084 19.5335 83.1791 18.0149 82.0596 16.8952C80.9401 15.7755 79.4212 15.1465 77.8378 15.1465H65.8968" stroke="white" stroke-width="3" stroke-linecap="round" stroke-linejoin="round"/>
<path d="M24.1025 6.19141V24.103" stroke="white" stroke-width="3" stroke-linecap="round" stroke-linejoin="round"/>
<path d="M65.8965 6.19141V24.103" stroke="white" stroke-width="3" stroke-linecap="round" stroke-linejoin="round"/>
<path d="M24.1025 15.1465H53.9552" stroke="white" stroke-width="3" stroke-linecap="round" stroke-linejoin="round"/>
<path d="M7.50098 33.752L82.501 33.752" stroke="white" stroke-width="3" stroke-linecap="round" stroke-linejoin="round"/>
<path d="M32.8389 59.4128L42.716 66.8206L60.0009 47.0664" stroke="#FEB534" stroke-width="3" stroke-linecap="round" stroke-linejoin="round"/>
</svg>
