<svg width="48" height="48" viewBox="0 0 48 48" fill="none" xmlns="http://www.w3.org/2000/svg">
<g clip-path="url(#clip0_269_1139)">
<path d="M21.77 1.71436H43.3782C44.9855 1.71436 46.2884 3.01732 46.2884 4.6246V27.8658C46.2884 29.4731 44.9855 30.776 43.3782 30.776H25.7142" stroke="#FEB534" stroke-width="3" stroke-linecap="round" stroke-linejoin="round"/>
<path d="M10.7949 13.718C14.1097 13.718 16.7968 11.0309 16.7968 7.71617C16.7968 4.40146 14.1097 1.71436 10.7949 1.71436C7.4802 1.71436 4.79309 4.40146 4.79309 7.71617C4.79309 11.0309 7.4802 13.718 10.7949 13.718Z" stroke="white" stroke-width="3" stroke-linecap="round" stroke-linejoin="round"/>
<path d="M30.8571 18.9515C30.8571 17.0059 29.2799 15.4287 27.3343 15.4287H10.7963C5.78042 15.4287 1.71424 19.4949 1.71423 24.5108V32.5716H5.60652L6.90396 46.2859H14.6886L17.6785 22.4742H27.3343C29.2799 22.4742 30.8571 20.897 30.8571 18.9515Z" stroke="white" stroke-width="3" stroke-linecap="round" stroke-linejoin="round"/>
</g>
<defs>
<clipPath id="clip0_269_1139">
<rect width="48" height="48" fill="white"/>
</clipPath>
</defs>
</svg>
