<svg width="48" height="48" viewBox="0 0 48 48" fill="none" xmlns="http://www.w3.org/2000/svg">
<path d="M22.424 8.81323H20.0685C19.4899 8.81495 18.9253 8.99135 18.4486 9.31939C17.9719 9.64744 17.6054 10.1118 17.3971 10.6516L16.1619 13.8401L11.9106 16.253L8.52109 15.7359C7.95671 15.6593 7.38229 15.7522 6.87082 16.0028C6.35934 16.2535 5.93393 16.6505 5.6486 17.1435L4.49962 19.1542C4.20519 19.655 4.06954 20.2333 4.11057 20.8128C4.15159 21.3923 4.36737 21.9458 4.72942 22.4001L6.88378 25.0715V29.8973L4.78687 32.5687C4.42482 33.0231 4.20904 33.5765 4.16802 34.156C4.12699 34.7354 4.26264 35.3138 4.55707 35.8147L5.70606 37.8253C5.99139 38.3183 6.41681 38.7153 6.92825 38.9659C7.43972 39.2166 8.01418 39.3095 8.57855 39.233L11.9681 38.716L16.1619 41.1287L17.3971 44.3173C17.6054 44.8569 17.9719 45.3215 18.4486 45.6496C18.9253 45.9774 19.4899 46.1539 20.0685 46.1557H22.4814C23.0601 46.1539 23.6247 45.9774 24.1014 45.6496C24.578 45.3215 24.9445 44.8569 25.1528 44.3173L26.388 41.1287L30.5819 38.716L33.9714 39.233C34.5358 39.3095 35.1102 39.2166 35.6217 38.9659C36.1332 38.7153 36.5587 38.3183 36.844 37.8253L37.9929 35.8147C38.2874 35.3138 38.4229 34.7354 38.3821 34.156C38.3409 33.5765 38.1253 33.0231 37.7632 32.5687L35.6087 29.8973V26.7858M15.5013 27.4844C15.5013 28.6207 15.8382 29.7314 16.4695 30.6762C17.1007 31.6209 17.998 32.3573 19.0477 32.7921C20.0975 33.2269 21.2526 33.3407 22.367 33.119C23.4815 32.8973 24.5051 32.3502 25.3086 31.5468C26.112 30.7433 26.6592 29.7196 26.8808 28.6052C27.1025 27.4908 26.9887 26.3357 26.5539 25.2859C26.1191 24.2361 25.3827 23.3389 24.438 22.7077C23.4932 22.0764 22.3825 21.7394 21.2462 21.7394C19.7226 21.7394 18.2613 22.3447 17.1839 23.4221C16.1065 24.4995 15.5013 25.9608 15.5013 27.4844Z" stroke="white" stroke-width="3" stroke-linecap="round" stroke-linejoin="round"/>
<path d="M35.1268 2.28997L27.5761 9.84074C27.1267 10.2901 27.445 11.0584 28.0805 11.0584H30.6382V19.6179C30.6382 20.0118 30.9575 20.3312 31.3515 20.3312H39.911C40.3048 20.3312 40.6243 20.0118 40.6243 19.6179V11.0584H43.182C43.8174 11.0584 44.1357 10.2901 43.6863 9.84074L36.1356 2.28997C35.857 2.01141 35.4054 2.01142 35.1268 2.28997Z" stroke="#FEB534" stroke-width="3" stroke-linecap="round" stroke-linejoin="round"/>
</svg>
