<svg xmlns="http://www.w3.org/2000/svg" width="2284.978" height="1499.032" viewBox="0 0 604.567 396.619" xmlns:v="https://vecta.io/nano"><path d="M387.609 350.192l-11.774-1.427-6.615-.836c-9.054-1.016-9.991-1.204-11.454-2.297-1.917-1.432-2.704-3.89-2.161-6.754.508-2.681 2.446-4.172 5.677-4.368 1.793-.109 7.732.503 22.541 2.325 3.576.44 6.55.751 6.61.691.148-.148-.733-6.822-2.015-15.255-1.756-11.558-1.996-13.831-1.629-15.467.353-1.575 1.286-2.943 2.652-3.884 1.445-.996 3.861-.947 14.704.296l12.435 1.473c1.601.209 3.49.381 4.198.382 1.208.002 1.277-.035 1.123-.593-.091-.327-.336-1.788-.545-3.247s-.445-2.827-.523-3.043-.677-4.082-1.33-8.594l-1.593-10.848c-.224-1.455-.332-3.153-.242-3.773.426-2.92 4.175-5.703 7.062-5.241 2.124.34 4.283 2.025 5.085 3.968.514 1.246 1.36 6.063 2.114 12.034.375 2.97.73 5.48.79 5.576s.597 3.5 1.193 7.564l1.642 10.431c.382 2.088.498 3.435.368 4.292-.255 1.685-1.583 3.606-3.069 4.436-1.106.618-1.425.663-4.498.632-3.45-.035-10.084-.689-18.379-1.814-2.681-.363-5.893-.739-7.138-.835-1.996-.153-2.264-.123-2.264.262 0 .607 2.29 16.224 2.77 18.888 1.113 6.185 1.49 9.65 1.199 11.048-.553 2.666-2.854 4.675-5.689 4.967-.759.078-5.549-.343-11.245-.989zm83.565-166.372c-1.375-.711-1.832-1.126-2.537-2.303-.726-1.212-.86-1.695-.86-3.093 0-1.654 1.382-11.735 2.878-20.989l1.461-9.26c.369-2.401.801-4.821.961-5.377.45-1.565 2.467-3.478 4.206-3.99.79-.232 1.629-.423 1.863-.423 1.084 0 3.782.935 6.972 2.416l7.323 3.279a323.9 323.9 0 0 1 7.276 3.272c1.892.887 3.591 1.613 3.777 1.614.558.004.766-.935 1.91-8.627 1.608-10.816 2.601-16.877 2.888-17.632.418-1.098 1.879-2.57 3.233-3.256 2.343-1.187 4.419-.772 10.682 2.14l22.409 10.042c4.642 2.042 5.442 2.682 6.387 5.104.947 2.428.336 4.957-1.67 6.903-2.286 2.218-4.658 2.195-9.576-.094l-6.173-2.783-6.482-2.901c-5.85-2.68-7.18-3.223-7.549-3.081-.193.074-.42.648-.504 1.275l-.556 3.786-.77 5.083c-.202 1.341-.435 2.65-.517 2.91s-.499 2.914-.926 5.897c-.894 6.254-1.446 8.016-2.931 9.357-1.533 1.385-2.587 1.842-4.238 1.835-1.313-.005-2.624-.525-13.442-5.334l-12.111-5.329c-.338 0-.742 1.954-1.58 7.65l-1.041 6.634c-.068.22-.481 2.835-.919 5.811-1.093 7.437-1.758 8.689-5.27 9.924-1.716.603-2.711.503-4.574-.46zM288.655 83.58l-6.085-1.412a128.17 128.17 0 0 1-4.895-1.202c-1.164-.32-3.545-.915-5.292-1.322l-6.41-1.562a165.17 165.17 0 0 0-5.157-1.225c-3.698-.778-5.571-2.028-6.725-4.486-.762-1.623-.787-2.857-.096-4.704.617-1.649 1.512-2.592 3.174-3.345 1.809-.819 3.294-.683 9.928.906l10.71 2.522c2.547.586 5.345 1.29 6.218 1.563s1.933.574 2.356.668l.768.171-.17-3.786c-.094-2.082-.19-8.49-.332-14.237-.098-3.932-.29-8.489.113-10.831s2.044-3.906 4.492-4.088c2.047-.152 1.739-.306 10.368 1.766l9.79 2.305c1.382.307 3.481.859 4.663 1.226s2.492.629 2.91.582l.761-.087-.008-1.984-.237-13.891c-.225-11.703-.22-11.925.311-12.965.735-1.438 1.631-2.353 3.009-3.074 1.553-.812 3.904-.831 5.409-.042 1.437.753 2.932 2.452 3.273 3.718.313 1.162.676 8.456 1.071 21.491.509 16.836.433 17.75-1.641 19.751-.623.601-1.514 1.285-1.98 1.519-1.695.852-2.39.73-18.6-3.262-6.74-1.66-10.558-2.444-10.892-2.238-.152.094-.197 1.09-.111 2.447.08 1.259.285 7.312.457 13.451.293 10.505.284 11.235-.16 12.397-.608 1.591-1.844 2.988-3.182 3.596-1.53.695-3.927.592-7.807-.336zM36.11 29.367c-1.702-.765-16.633-7.137-19.182-8.187-4.379-1.803-12.406-5.272-13.492-5.831C1.442 14.324.01 11.97 0 9.702c-.007-1.66.923-3.425 3.65-6.921L5.709.14l8.266-.07L22.242 0l-2.053 2.583-2.821 3.488-.767.904 1.023.527c.563.29 2.392 1.085 4.066 1.766 4.232 1.722 17.756 7.541 18.993 8.172 1.22.622 2.876 2.392 3.39 3.622 1.254 3.002-.875 7.308-4.089 8.271-1.194.358-3.115.374-3.874.033z" fill="#5ea400"/><path d="M34.258 394.704l-7.276-8.546c-8.41-9.819-8.468-9.906-8.465-12.557.003-2.555 1.13-4.516 3.204-5.574 1.338-.683 4.183-.691 5.667-.017 1.177.535 3.686 3.254 11.748 12.733l9.179 10.782 4.341 5.093-8.405-.005-8.405-.005zm34.604 1.568c.073-.19.898-1.411 1.834-2.712s5.43-7.879 9.987-14.617 8.807-12.788 9.444-13.443c1.423-1.464 2.54-1.954 4.455-1.954 3.072 0 3.575.462 14.553 13.361l12.235 14.354 4.579 5.358-8.408-.007-8.408-.007-5.424-6.388c-6.735-7.933-7.894-9.207-8.366-9.207-.463 0-4.088 4.871-8.19 11.004l-3.081 4.606h-7.672c-6.21 0-7.647-.066-7.54-.346zm67.83-.398l13.395-19.821c8.136-11.999 10.118-14.637 11.683-15.555 2.17-1.272 5.597-.775 7.454 1.079 1.27 1.268 1.847 3.122 1.606 5.157-.221 1.867-.699 2.67-7.634 12.835l-7.439 10.914-4.177 6.134h-7.689-7.689zm383.473-55.633c-1.744-.788-3.12-2.246-3.58-3.793-.754-2.538-.411-4.234 1.232-6.105 1.634-1.862.83-1.673 23.212-5.446 10.047-1.694 11.944-2.097 11.944-2.537 0-.234-1.529-3.602-5.627-12.393l-4.566-9.922c-.476-1.091-1.414-3.154-2.084-4.583-1.097-2.34-1.217-2.787-1.212-4.498.009-2.942 1.167-4.883 3.493-5.855 1.059-.442 9.759-2.012 18.33-3.307 2.91-.44 6.006-.979 6.879-1.198s2.816-.577 4.318-.794 2.853-.471 3.003-.564c.485-.3.005-1.641-2.531-7.074l-3.8-8.244-4.053-8.731c-2.48-5.263-2.752-5.992-2.847-7.609-.089-1.536-.002-1.996.616-3.26 1.542-3.152 5.41-4.394 8.588-2.759 1.853.953 2.516 2.026 6.296 10.189l3.383 7.276 6.607 14.42 2.758 6.136c1.844 4.085 1.733 6.408-.42 8.803-1.41 1.568-2.323 1.885-8.028 2.786l-21.96 3.699c-.946.212-2.375.48-3.175.595-1.209.174-1.469.306-1.537.781-.071.496 3.926 9.479 8.809 19.799 3.624 7.658 4.462 9.744 4.577 11.387.126 1.798-.242 2.939-1.386 4.295-1.465 1.738-2.464 2.087-8.886 3.103l-10.97 1.844c-7.807 1.403-24.59 4.111-25.435 4.104-.417-.003-1.295-.248-1.949-.544zM161.624 37.229c-1.397-.523-2.421-1.327-3.293-2.585-.64-.923-.787-1.436-.867-3.019-.114-2.267.132-2.852 2.131-5.04.769-.843 6.042-5.997 11.718-11.454l13.022-12.527L187.038 0l8.294.07 8.294.07-.225.87c-.32 1.235-2.09 3.027-18.991 19.228-16.797 16.102-16.726 16.036-17.968 16.672-1.197.612-3.607.772-4.816.32zm282.076-2.321l-5.556-1.953c-5.454-1.896-6.744-2.726-7.836-5.035-1.036-2.191-.751-4.307.863-6.424 1.206-1.582 2.033-1.908 4.837-1.909 1.857-.001 2.926.145 4.18.568 1.142.386 1.772.482 1.954.3.148-.148.37-1.342.493-2.653.323-3.441 1.668-5.734 3.855-6.569 1.468-.561 4.201-.395 6.692.406.922.296 1.83.539 2.016.539.232 0 .398-.672.525-2.135.351-4.02 1.35-5.967 3.693-7.195 2.297-1.204 5.9-.431 7.641 1.638 1.183 1.405 1.342 2.379 1.158 7.058-.178 4.503-.612 10.319-.863 11.551-.193.95-2.635 3.614-3.732 4.072-1.414.591-3.673.434-6.145-.426-1.227-.427-2.313-.725-2.414-.663s-.326 1.277-.5 2.698c-.368 3.004-.967 4.438-2.392 5.725-2.021 1.826-4.176 1.93-8.47.408zm156.919-8.327c-1.026-.445-1.503-.839-10.076-8.304-12.569-10.946-13.048-11.463-13.076-14.119-.011-.991.173-2.134.466-2.894l.484-1.257 5.468.01 5.468.01 5.415 4.773c5.442 4.797 6.392 5.536 6.553 5.099.048-.13.788-1.665 1.643-3.411l1.556-3.175.023 11.84.023 11.84-1.521-.01c-.837-.006-1.928-.187-2.426-.403z" fill="#ffa800"/></svg>