<svg width="90" height="90" viewBox="0 0 90 90" fill="none" xmlns="http://www.w3.org/2000/svg">
<path d="M36.4239 13.6492C38.6026 11.793 39.6939 10.863 40.8339 10.3192C42.1348 9.69762 43.5583 9.375 45.0001 9.375C46.4419 9.375 47.8654 9.69762 49.1664 10.3192C50.3064 10.863 51.3976 11.793 53.5764 13.6492C55.8226 15.5617 58.1026 16.5292 61.1026 16.7655C63.9564 16.9942 65.3851 17.1105 66.5776 17.5305C69.3301 18.5055 71.4976 20.6692 72.4689 23.4255C72.8889 24.6142 73.0051 26.043 73.2339 28.9005C73.4701 31.9005 74.4339 34.1767 76.3464 36.423C78.2064 38.6017 79.1364 39.693 79.6801 40.833C80.9401 43.4692 80.9401 46.533 79.6801 49.1655C79.1364 50.3055 78.2064 51.3967 76.3501 53.5755C74.4933 55.6616 73.3952 58.3136 73.2339 61.1017C73.0051 63.9555 72.8889 65.3842 72.4689 66.5767C71.9881 67.9363 71.2091 69.1711 70.1891 70.1905C69.169 71.2099 67.9338 71.9881 66.5739 72.468C65.3851 72.888 63.9564 73.0042 61.0989 73.233C58.0989 73.4692 55.8226 74.433 53.5764 76.3455C51.3976 78.2055 50.3064 79.1355 49.1664 79.6792C47.8654 80.3008 46.4419 80.6234 45.0001 80.6234C43.5583 80.6234 42.1348 80.3008 40.8339 79.6792C39.6939 79.1355 38.6026 78.2055 36.4239 76.3492C34.3377 74.4924 31.6857 73.3943 28.8976 73.233C26.0439 73.0042 24.6151 72.888 23.4226 72.468C22.063 71.9872 20.8282 71.2082 19.8088 70.1882C18.7894 69.1681 18.0113 67.9329 17.5314 66.573C17.1114 65.3842 16.9951 63.9555 16.7664 61.098C16.6055 58.3115 15.5088 55.661 13.6539 53.5755C11.7939 51.3967 10.8639 50.3055 10.3164 49.1655C9.69535 47.8643 9.37338 46.4406 9.37402 44.9988C9.37467 43.557 9.69793 42.1336 10.3201 40.833C10.8639 39.693 11.7939 38.6017 13.6501 36.423C15.6001 34.1317 16.5339 31.8367 16.7664 28.8967C16.9951 26.043 17.1114 24.6142 17.5314 23.4217C18.0121 22.0621 18.7911 20.8273 19.8111 19.8079C20.8312 18.7885 22.0664 18.0104 23.4264 17.5305C24.6151 17.1105 26.0439 16.9942 28.9014 16.7655C31.6878 16.6046 34.3384 15.5041 36.4239 13.6492Z" stroke="#3C3843" stroke-width="3" stroke-linecap="round" stroke-linejoin="round"/>
<path d="M60 37.5L46.875 50.625L39.375 43.125L30 52.5" stroke="#FEB534" stroke-width="3" stroke-linecap="round" stroke-linejoin="round"/>
</svg>
