<svg fill="none" height="300" viewBox="0 0 561 300" width="561" xmlns="http://www.w3.org/2000/svg" xmlns:xlink="http://www.w3.org/1999/xlink"><mask id="a" height="112" maskUnits="userSpaceOnUse" width="76" x="240" y="118"><path clip-rule="evenodd" d="m240.766 118.539h74.855v110.957h-74.855z" fill="#fff" fill-rule="evenodd"/></mask><mask id="b" height="83" maskUnits="userSpaceOnUse" width="57" x="504" y="116"><path clip-rule="evenodd" d="m504.293 116.672h55.712v82.012h-55.712z" fill="#fff" fill-rule="evenodd"/></mask><mask id="c" height="105" maskUnits="userSpaceOnUse" width="112" x="4" y="0"><path clip-rule="evenodd" d="m4.50781.754883h111.10119v103.908117h-111.10119z" fill="#fff" fill-rule="evenodd"/></mask><path clip-rule="evenodd" d="m207.27 87.4147h10.582v88.5473c0 10.272 4.668 11.828 8.716 11.828 1.4 0 2.646-.156 2.646-.156v9.493s-1.867.31-3.891.31c-6.538 0-18.053-2.022-18.053-19.14z" fill="#505050" fill-rule="evenodd"/><g mask="url(#a)"><path clip-rule="evenodd" d="m244.812 216.424s4.357 3.579 9.338 3.579c6.848 0 11.671-5.601 14.783-12.761l4.824-11.048-32.677-77.655h11.67l23.031 57.111c1.557 3.893 2.802 8.249 2.802 8.249h.31s1.089-4.356 2.644-8.249l22.567-57.111h11.517l-38.594 94.616c-4.047 9.96-12.14 16.341-22.565 16.341-8.094 0-13.696-4.668-13.696-4.668z" fill="#505050" fill-rule="evenodd"/></g><g mask="url(#b)"><path clip-rule="evenodd" d="m510.053 179.697s8.713 9.493 23.342 9.493c8.402 0 15.718-4.201 15.718-12.45 0-17.117-42.172-12.915-42.172-38.438 0-14.006 12.603-21.63 26.762-21.63 16.499 0 24.123 8.558 24.123 8.558l-4.822 8.092s-6.692-7.158-19.609-7.158c-7.936 0-15.561 3.423-15.561 12.138 0 17.273 42.172 12.606 42.172 38.438 0 12.762-11.051 21.944-26.766 21.944-18.987 0-28.947-11.361-28.947-11.361z" fill="#505050" fill-rule="evenodd"/></g><path clip-rule="evenodd" d="m483.081 152.887h-60.499v-.34c0-4.475 1.665-9.314 4.567-13.274 2.744-3.743 6.399-6.694 11.172-9.025 4.66-2.271 9.653-3.471 14.434-3.471 4.72 0 9.708 1.229 14.424 3.553 4.632 2.288 8.552 5.505 11.335 9.301 2.988 4.078 4.567 8.544 4.567 12.916zm4.772-15.674c-3.628-6.133-8.613-11.09-14.816-14.732-6.198-3.629-13.022-5.47-20.281-5.47-7.261 0-14.085 1.841-20.282 5.47-6.205 3.643-11.189 8.6-14.811 14.732-3.631 6.134-5.472 12.986-5.472 20.363 0 7.275 1.841 14.098 5.472 20.282 3.625 6.194 8.608 11.178 14.811 14.813 6.195 3.633 13.019 5.475 20.282 5.475 7.152 0 13.867-1.787 19.957-5.312 5.983-3.463 10.852-8.129 14.472-13.872l-8.399-4.841c-2.622 4.078-6.425 7.588-11.015 10.164-4.441 2.492-9.633 3.807-15.012 3.807-7.216 0-14.256-2.556-19.821-7.198-5.049-4.203-8.494-10.574-9.965-18.417l-.074-.402 70.011-.029c.075-.788.151-1.434.216-1.997.115-.988.198-1.701.198-2.473 0-7.369-1.84-14.221-5.471-20.363z" fill="#505050" fill-rule="evenodd"/><path clip-rule="evenodd" d="m353.408 130.142c3.257-1.898 6.823-2.86 10.604-2.86 3.784 0 7.353.962 10.608 2.86 3.245 1.89 5.851 4.468 7.747 7.664 1.894 3.196 2.854 6.74 2.854 10.53v48.14h10.401v-48.14c0-5.689-1.444-11.006-4.287-15.802-2.85-4.799-6.726-8.65-11.517-11.44h.001c-4.806-2.79-10.124-4.205-15.807-4.205-4.005 0-7.82.773-11.343 2.299-3.528 1.528-6.649 3.795-9.273 6.736l-.594.668v-7.618h-10.232v77.502h10.232v-48.14c0-3.792.962-7.336 2.861-10.53 1.896-3.196 4.501-5.774 7.745-7.664z" fill="#505050" fill-rule="evenodd"/><g mask="url(#c)"><path clip-rule="evenodd" d="m24.1078 94.8044 9.7925 9.8596 77.7187-79.9673c5.43-5.5888 5.302-14.5196-.284-19.94929v-.00136c-5.589-5.431068-14.5195-5.30331-19.9505.28541l-86.87669 89.38834c5.54929-5.1565 14.22049-5.0301 19.59999.3846z" fill="#a6e4f0" fill-rule="evenodd"/></g><g clip-rule="evenodd" fill-rule="evenodd"><path d="m33.8989 104.663-9.6797 9.96c-5.3468 5.5-14.0792 5.699-19.68014.52l74.64454 75.155c5.4909 5.529 14.4244 5.559 19.9506.068 5.5278-5.491 5.5598-14.423.0693-19.951z" fill="#9ec5d5"/><path d="m24.2204 114.622 9.6797-9.959-9.7925-9.8595c-5.3794-5.4134-14.0506-5.5398-19.59994-.3832l-.52191.5368c-3.111034 3.2008-4.39133 7.4959-3.868067 11.6029.00136.007.00136.014.002719.02.188918 2.69 1.088658 4.207 2.574188 6.426.41996.585.86984 1.154 1.3931 1.682l.45395.456c5.59956 5.177 14.33196 4.98 19.67876-.522z" fill="#008eb0"/><path d="m168.788 54.3624c5.43-5.5873 5.302-14.5195-.284-19.9492v-.0014c-5.586-5.431-14.519-5.3033-19.949.2854l-57.3753 59.8817c5.5466-5.2054 14.2573-5.0953 19.6533.3371l9.791 9.859z" fill="#ffd5b9"/><path d="m91.2539 115.243 37.7811 38.288c5.489 5.527 14.423 5.559 19.95.068 5.528-5.491 5.559-14.423.068-19.951l-28.426-28.873-9.679 9.958c-5.35 5.507-14.0945 5.699-19.6941.51z" fill="#ffb9b5"/><path d="m91.1782 94.5794-.4703.4893c-3.1097 3.2007-4.39 7.4953-3.8681 11.6013.0014.008.0028.015.0028.023.2813 1.778 1.2449 5.586 3.9672 8.106l.439.445c5.5996 5.189 14.3432 4.996 19.6942-.51l9.679-9.96-9.791-9.8575c-5.397-5.4324-14.1076-5.5439-19.6528-.3371z" fill="#e19897"/></g></svg>
