<svg width="90" height="90" viewBox="0 0 90 90" fill="none" xmlns="http://www.w3.org/2000/svg">
<path d="M9.87891 20.7484C9.87891 22.7848 10.6879 24.7378 12.1278 26.1777C13.5677 27.6176 15.5207 28.4266 17.557 28.4266C19.5934 28.4266 21.5464 27.6176 22.9863 26.1777C24.4262 24.7378 25.2352 22.7848 25.2352 20.7484C25.2352 18.7121 24.4262 16.7591 22.9863 15.3192C21.5464 13.8793 19.5934 13.0703 17.557 13.0703C15.5207 13.0703 13.5677 13.8793 12.1278 15.3192C10.6879 16.7591 9.87891 18.7121 9.87891 20.7484Z" stroke="white" stroke-width="3" stroke-linecap="round" stroke-linejoin="round"/>
<path d="M29.6648 38.6162C28.8909 36.8021 27.7191 35.1853 26.2362 33.8852C24.7532 32.5851 22.9969 31.635 21.0973 31.1051C19.1977 30.5751 17.2032 30.479 15.2614 30.8237C13.3196 31.1684 11.4801 31.9452 9.87891 33.0966" stroke="white" stroke-width="3" stroke-linecap="round" stroke-linejoin="round"/>
<path d="M64.7646 20.7484C64.7646 22.7848 65.5736 24.7378 67.0136 26.1777C68.4536 27.6176 70.4065 28.4266 72.4428 28.4266C74.4794 28.4266 76.4323 27.6176 77.8723 26.1777C79.312 24.7378 80.1209 22.7848 80.1209 20.7484C80.1209 18.7121 79.312 16.7591 77.8723 15.3192C76.4323 13.8793 74.4794 13.0703 72.4428 13.0703C70.4065 13.0703 68.4536 13.8793 67.0136 15.3192C65.5736 16.7591 64.7646 18.7121 64.7646 20.7484Z" stroke="white" stroke-width="3" stroke-linecap="round" stroke-linejoin="round"/>
<path d="M60.3359 38.6162C61.1097 36.8021 62.2815 35.1853 63.7644 33.8852C65.2476 32.5851 67.0037 31.635 68.9032 31.1051C70.803 30.5751 72.7974 30.479 74.7391 30.8237C76.6811 31.1684 78.5205 31.9452 80.1219 33.0966" stroke="white" stroke-width="3" stroke-linecap="round" stroke-linejoin="round"/>
<path d="M33.2686 17.1809C33.2686 18.7215 33.572 20.247 34.1616 21.6703C34.7512 23.0937 35.6153 24.387 36.7047 25.4764C37.7941 26.5658 39.0874 27.4299 40.5105 28.0195C41.934 28.6091 43.4594 28.9125 45.0003 28.9125C46.5409 28.9125 48.0663 28.6091 49.4898 28.0195C50.9129 27.4299 52.2063 26.5658 53.2958 25.4764C54.3849 24.387 55.2491 23.0937 55.8387 21.6703C56.4282 20.247 56.732 18.7215 56.732 17.1809C56.732 15.6402 56.4282 14.1147 55.8387 12.6914C55.2491 11.268 54.3849 9.97471 53.2958 8.88532C52.2063 7.79597 50.9129 6.93179 49.4898 6.34222C48.0663 5.75267 46.5409 5.44922 45.0003 5.44922C43.4594 5.44922 41.934 5.75267 40.5105 6.34222C39.0874 6.93179 37.7941 7.79597 36.7047 8.88532C35.6153 9.97471 34.7512 11.268 34.1616 12.6914C33.572 14.1147 33.2686 15.6402 33.2686 17.1809Z" stroke="white" stroke-width="3" stroke-linecap="round" stroke-linejoin="round"/>
<path d="M65.2957 43.1022C62.7237 40.2764 59.5898 38.0186 56.0949 36.4737C52.6001 34.9288 48.8208 34.1309 45 34.1309C41.1788 34.1309 37.3997 34.9288 33.9047 36.4737C30.4099 38.0186 27.2761 40.2764 24.7041 43.1022" stroke="white" stroke-width="3" stroke-linecap="round" stroke-linejoin="round"/>
<path d="M58.9037 51.5254C58.8457 55.1753 57.3551 58.6561 54.7535 61.2166C52.152 63.777 48.6479 65.2121 44.9977 65.2121C41.3474 65.2121 37.8436 63.777 35.242 61.2166C32.6404 58.6561 31.1498 55.1753 31.0918 51.5254" stroke="#FEB534" stroke-width="3" stroke-linecap="round" stroke-linejoin="round"/>
<path d="M78.0259 51.5117V56.7395L72.0493 57.9348C71.3596 60.8323 70.2043 63.5988 68.6286 66.1262L72.0353 71.2027L64.6525 78.5856L59.5794 75.1789C57.0513 76.7683 54.2792 77.9313 51.3739 78.6207L50.1927 84.5656H39.7864L38.6017 78.6207C35.6974 77.9306 32.9265 76.768 30.3996 75.1789L25.3125 78.5715L17.9297 71.1887L21.3363 66.1121C19.7594 63.5847 18.603 60.8183 17.9121 57.9207L11.9355 56.7254V51.5117" stroke="#FEB534" stroke-width="3" stroke-linecap="round" stroke-linejoin="round"/>
</svg>
