<svg width="48" height="48" viewBox="0 0 48 48" fill="none" xmlns="http://www.w3.org/2000/svg">
<path d="M24.3376 20.4371C24.0128 20.1486 23.7505 19.7967 23.5667 19.4031C23.383 19.0096 23.2816 18.5826 23.2688 18.1484C23.2561 17.7142 23.3322 17.282 23.4925 16.8782C23.6528 16.4745 23.8939 16.1078 24.2011 15.8007C24.5082 15.4935 24.8749 15.2524 25.2786 15.0921C25.6823 14.9318 26.1145 14.8557 26.5487 14.8685C26.983 14.8812 27.4099 14.9826 27.8035 15.1664C28.1971 15.3502 28.549 15.6125 28.8376 15.9372C29.1571 16.2498 29.4063 16.6269 29.5688 17.0434C29.6217 17.1693 29.7036 17.2808 29.8079 17.3688C29.9121 17.4568 30.0359 17.5188 30.1688 17.5497C30.2982 17.578 30.4326 17.574 30.5603 17.5381C30.6878 17.5021 30.8044 17.4352 30.9001 17.3434L33.3751 14.8497C33.5253 14.7014 33.6445 14.5248 33.7261 14.3301C33.8074 14.1353 33.8492 13.9263 33.8492 13.7153C33.8492 13.5042 33.8074 13.2953 33.7261 13.1005C33.6445 12.9058 33.5253 12.7292 33.3751 12.5809L30.7501 9.97467C31.2968 9.83482 31.7958 9.54976 32.1938 9.14965C32.4919 8.85188 32.7286 8.49822 32.89 8.10893C33.0514 7.71963 33.1345 7.30235 33.1345 6.8809C33.1345 6.45948 33.0514 6.0422 32.89 5.65289C32.7286 5.2636 32.4919 4.90994 32.1938 4.61215C31.8961 4.31395 31.5424 4.07738 31.153 3.91598C30.7637 3.75457 30.3466 3.67148 29.9251 3.67148C29.5036 3.67148 29.0864 3.75457 28.6971 3.91598C28.3077 4.07738 27.9541 4.31395 27.6563 4.61215C27.2562 5.01027 26.9712 5.5091 26.8313 6.05592L24.1688 3.37467C24.0205 3.22443 23.8439 3.10515 23.6493 3.02373C23.4544 2.94232 23.2456 2.90039 23.0344 2.90039C22.8233 2.90039 22.6144 2.94232 22.4196 3.02373C22.225 3.10515 22.0484 3.22443 21.9001 3.37467L19.5938 5.66217C19.5075 5.74627 19.4421 5.84947 19.4031 5.96347C19.364 6.07747 19.3522 6.19904 19.3688 6.3184C19.3794 6.43872 19.417 6.5551 19.4787 6.65894C19.5403 6.7628 19.6245 6.85147 19.7251 6.91842C19.9141 7.02892 20.0849 7.16808 20.2313 7.3309C20.5561 7.61947 20.8182 7.97135 21.0021 8.36493C21.1859 8.75851 21.2873 9.1855 21.3001 9.6197C21.3128 10.0539 21.2367 10.4861 21.0764 10.8898C20.9161 11.2935 20.6749 11.6602 20.3678 11.9674C20.0606 12.2745 19.6939 12.5157 19.2902 12.676C18.8865 12.8363 18.4543 12.9124 18.0201 12.8996C17.5859 12.8868 17.1589 12.7854 16.7653 12.6017C16.3717 12.4179 16.0199 12.1556 15.7313 11.8309C15.5827 11.6715 15.4449 11.5024 15.3188 11.3247C15.2529 11.2232 15.1645 11.1382 15.0604 11.0765C14.9564 11.0147 14.8395 10.9777 14.7188 10.9684C14.6023 10.9518 14.4835 10.9636 14.3725 11.0028C14.2615 11.042 14.1616 11.1074 14.0813 11.1934L11.7751 13.4997C11.6248 13.6479 11.5055 13.8245 11.4241 14.0193C11.3427 14.214 11.3008 14.423 11.3008 14.634C11.3008 14.8451 11.3427 15.0541 11.4241 15.2488C11.5055 15.4435 11.6248 15.6201 11.7751 15.7684L20.9626 24.9559C21.1109 25.1061 21.2875 25.2255 21.4821 25.3069C21.6769 25.3883 21.8858 25.4303 22.0969 25.4303C22.3081 25.4303 22.5169 25.3883 22.7118 25.3069C22.9064 25.2255 23.083 25.1061 23.2313 24.9559L25.7251 22.4809C25.8169 22.3826 25.8835 22.2634 25.9188 22.1334C25.954 22.0037 25.957 21.8672 25.9274 21.7359C25.8979 21.6045 25.8366 21.4826 25.7491 21.3804C25.6615 21.2783 25.5503 21.1989 25.4251 21.1496C25.0169 20.9904 24.6466 20.7476 24.3376 20.4371Z" stroke="#FEB534" stroke-width="3" stroke-linecap="round" stroke-linejoin="round"/>
<path d="M8.53125 45.0938L4.78125 40.3688C3.58202 38.8731 2.92151 37.017 2.90625 35.1V25.4062C2.90625 24.6604 3.20257 23.9449 3.73001 23.4174C4.25745 22.89 4.97284 22.5938 5.71875 22.5938C6.46466 22.5938 7.18005 22.89 7.70749 23.4174C8.23493 23.9449 8.53125 24.6604 8.53125 25.4062V32.7938" stroke="white" stroke-width="3" stroke-linecap="round" stroke-linejoin="round"/>
<path d="M16.9686 45.094V39.2065C16.9719 37.5426 16.4754 35.916 15.5436 34.5377L13.4061 31.3127C13.2208 31.0046 12.9748 30.7376 12.6829 30.528C12.3911 30.3184 12.0595 30.1705 11.7086 30.0932C11.3576 30.016 10.9946 30.0113 10.6417 30.079C10.2888 30.1468 9.95343 30.2858 9.65607 30.4877C9.12275 30.8413 8.7382 31.3789 8.57568 31.9978C8.41317 32.6168 8.48405 33.2738 8.77482 33.844L11.3436 38.0627" stroke="white" stroke-width="3" stroke-linecap="round" stroke-linejoin="round"/>
<path d="M39.4688 45.0938L43.2188 40.3688C44.4246 38.8766 45.0859 37.0183 45.0938 35.1V25.4062C45.0938 24.6604 44.7975 23.9449 44.2701 23.4174C43.7426 22.89 43.0271 22.5938 42.2812 22.5938C41.5354 22.5938 40.8199 22.89 40.2924 23.4174C39.765 23.9449 39.4688 24.6604 39.4688 25.4062V32.6812" stroke="white" stroke-width="3" stroke-linecap="round" stroke-linejoin="round"/>
<path d="M31.0313 45.0935V39.206C31.0279 37.5421 31.5244 35.9158 32.4563 34.5373L34.5938 31.3123C34.7771 31.0023 35.0222 30.7333 35.314 30.5221C35.6057 30.3108 35.9378 30.1619 36.2893 30.0845C36.6411 30.0071 37.005 30.0029 37.3585 30.0723C37.7119 30.1415 38.0473 30.2829 38.3438 30.4873C38.8802 30.8381 39.2687 31.3743 39.4346 31.9936C39.6008 32.6128 39.5327 33.2715 39.2438 33.8435L36.6563 38.0623" stroke="white" stroke-width="3" stroke-linecap="round" stroke-linejoin="round"/>
</svg>
