<svg width="48" height="48" viewBox="0 0 48 48" fill="none" xmlns="http://www.w3.org/2000/svg">
<path d="M12.75 31.9688H7.125C6.75354 31.9736 6.39868 32.1232 6.13599 32.3859C5.87333 32.6486 5.72361 33.0036 5.71875 33.375V45.0938H14.1562V33.375C14.1514 33.0036 14.0017 32.6486 13.739 32.3859C13.4763 32.1232 13.1215 31.9736 12.75 31.9688Z" stroke="white" stroke-width="3" stroke-linecap="round" stroke-linejoin="round"/>
<path d="M26.8125 24.4688H21.1875C20.8161 24.4736 20.4611 24.6232 20.1985 24.8859C19.9358 25.1486 19.7861 25.5036 19.7812 25.875V45.0938H28.2188V25.875C28.2139 25.5036 28.0643 25.1486 27.8016 24.8859C27.5389 24.6232 27.1839 24.4736 26.8125 24.4688Z" stroke="white" stroke-width="3" stroke-linecap="round" stroke-linejoin="round"/>
<path d="M40.875 16.9688H35.25C34.8786 16.9736 34.5236 17.1233 34.2609 17.386C33.9982 17.6487 33.8486 18.0035 33.8438 18.375V45.0938H42.2812V18.375C42.2764 18.0035 42.1268 17.6487 41.8641 17.386C41.6014 17.1233 41.2464 16.9736 40.875 16.9688Z" stroke="white" stroke-width="3" stroke-linecap="round" stroke-linejoin="round"/>
<path d="M2.90625 45.0938H45.0938" stroke="#FEB534" stroke-width="3" stroke-linecap="round" stroke-linejoin="round"/>
<path d="M9.33789 18.8242L39.4692 5.13672" stroke="#FEB534" stroke-width="3" stroke-linecap="round" stroke-linejoin="round"/>
<path d="M37.2371 11.1187L39.4684 5.1375L33.5059 2.90625" stroke="#FEB534" stroke-width="3" stroke-linecap="round" stroke-linejoin="round"/>
</svg>
