<svg width="90" height="90" viewBox="0 0 90 90" fill="none" xmlns="http://www.w3.org/2000/svg">
<path d="M77.3789 58.6758C75.1423 63.965 71.6441 68.6258 67.1901 72.2507C62.7362 75.8756 57.462 78.3542 51.8288 79.4699C46.1956 80.5856 40.3749 80.3044 34.8755 78.6508C29.3761 76.9973 24.3654 74.0217 20.2817 69.9843C16.1979 65.9469 13.1653 60.9706 11.4491 55.4904C9.73281 50.0103 9.38513 44.1931 10.4364 38.5475C11.4877 32.902 13.906 27.5999 17.4798 23.1048C21.0536 18.6097 25.6741 15.0585 30.9375 12.7617" stroke="#FFFFFF" stroke-width="3" stroke-linecap="round" stroke-linejoin="round"/>
<path d="M80.1562 45C80.1562 40.3832 79.2469 35.8116 77.4801 31.5463C75.7134 27.2809 73.1238 23.4053 69.8592 20.1408C66.5947 16.8762 62.7191 14.2866 58.4537 12.5199C54.1884 10.7531 49.6168 9.84375 45 9.84375V45H80.1562Z" stroke="#FEB534" stroke-width="3" stroke-linecap="round" stroke-linejoin="round"/>
</svg>
