<svg width="192" height="52" viewBox="0 0 192 52" fill="none" xmlns="http://www.w3.org/2000/svg">
<g clip-path="url(#clip0_1_109)">
<path d="M65.9479 11.1679C68.1673 11.1679 69.3077 12.7858 69.5722 14.7262L73.1964 13.6909C72.4379 10.035 69.9247 7.5415 65.8918 7.5415C61.8589 7.5415 58.3521 11.0377 58.3521 16.0188C58.3521 20.9998 61.6826 24.496 65.8918 24.496C70.101 24.496 72.494 22.0055 73.1964 18.3466L69.5722 17.3439C69.1929 19.4469 68.17 20.8697 65.9479 20.8697C63.5815 20.8697 62.0325 18.9293 62.0325 16.0158C62.0325 13.1023 63.7284 11.1619 65.9479 11.1619V11.1679Z" fill="black"/>
<path d="M159.416 7.99731H155.735V24.0467H159.416V7.99731Z" fill="black"/>
<path d="M134.697 3.01297V7.99698H131.017V11.4932H134.697V20.9406C134.697 22.7538 135.923 24.0464 137.56 24.0464H141.535V20.5502H139.198C138.671 20.5502 138.38 20.2278 138.38 19.58V11.4902H142.354V7.99402H138.38V3.01001H134.7L134.697 3.01297Z" fill="black"/>
<path d="M144.809 7.99696V24.0464H148.489V14.9864C148.489 12.7207 149.833 11.6204 151.702 11.6204H153.866V7.93188H152.463C150.623 7.93188 149.395 8.54712 148.839 10.3278H148.431V7.99696H144.806H144.809Z" fill="black"/>
<path d="M160.177 3.33536C160.177 1.68487 159.036 0.552002 157.575 0.552002C156.114 0.552002 154.974 1.68487 154.974 3.33536C154.974 4.98585 156.114 6.11872 157.575 6.11872C159.036 6.11872 160.177 4.98585 160.177 3.33536Z" fill="black"/>
<path d="M185.13 14.176L184.633 14.1109C183.114 13.9157 182.032 13.6258 182.032 12.4604C182.032 11.4903 182.79 10.8425 184.166 10.8425C186.094 10.8425 187.555 12.138 188.666 13.5933L191.326 11.2625C189.369 8.99677 187.264 7.5415 184.283 7.5415C180.923 7.5415 178.469 9.54694 178.469 12.5255C178.469 15.5041 180.309 16.9594 184.371 17.477L185.408 17.6131C186.77 17.8024 187.934 18.1011 187.934 19.16C187.934 20.423 186.562 21.1329 185.071 21.1329C183.202 21.1329 181.244 20.0326 180.339 17.9295L177.417 19.9675C178.76 22.2333 180.982 24.499 184.983 24.499C188.984 24.499 191.5 22.2007 191.5 19.0624C191.5 16.1164 189.777 14.7912 185.13 14.176Z" fill="black"/>
<path d="M169.41 11.1679C171.629 11.1679 172.77 12.7858 173.034 14.7262L176.658 13.6909C175.9 10.035 173.387 7.5415 169.354 7.5415C165.321 7.5415 161.814 11.0377 161.814 16.0188C161.814 20.9998 165.144 24.496 169.354 24.496C173.563 24.496 175.956 22.0055 176.658 18.3466L173.034 17.3439C172.655 19.4469 171.632 20.8697 169.41 20.8697C167.043 20.8697 165.494 18.9293 165.494 16.0158C165.494 13.1023 167.19 11.1619 169.41 11.1619V11.1679Z" fill="black"/>
<path d="M36.4061 14.8238C33.6311 15.1462 31.6146 16.9268 31.6146 19.4824C31.6146 22.5556 33.778 24.4989 37.0497 24.4989C40.1185 24.4989 41.1414 22.8485 41.6088 21.7807H42.0174V24.0464H45.6417V13.7885C45.6417 10.035 43.0697 7.54443 39.125 7.54443C35.5888 7.54443 33.6311 9.29254 31.9084 11.6855L34.889 13.821C35.7945 12.138 36.9936 11.0377 38.922 11.0377C40.8503 11.0377 41.9614 12.2356 41.9614 13.756V14.1434L36.4087 14.8238H36.4061ZM41.9587 17.2522C41.9587 19.4528 40.5271 21.1358 37.9551 21.1358C36.3179 21.1358 35.4713 20.3579 35.4713 19.2576C35.4713 18.32 36.1443 17.7698 37.5171 17.5746L41.9587 16.9919V17.2522Z" fill="black"/>
<path d="M7.9486 21.1329C6.07903 21.1329 4.12132 20.0326 3.21592 17.9295L0.294052 19.9675C1.63747 22.2333 3.85959 24.499 7.86046 24.499C11.8613 24.499 14.3772 22.2007 14.3772 19.0624C14.3772 16.1844 12.732 14.8534 8.31984 14.2204L7.13934 14.0607C5.81729 13.8625 4.90922 13.5282 4.90922 12.4604C4.90922 11.4903 5.66772 10.8425 7.04319 10.8425C8.97152 10.8425 10.4324 12.138 11.5435 13.5933L14.2036 11.2625C12.2459 8.99677 10.1413 7.5415 7.16071 7.5415C3.80083 7.5415 1.34635 9.54694 1.34635 12.5255C1.34635 15.5041 3.09573 16.8854 6.94704 17.4356L8.28512 17.6101C9.64723 17.7994 10.8117 18.0981 10.8117 19.1571C10.8117 20.4201 9.43891 21.13 7.9486 21.13V21.1329Z" fill="black"/>
<path d="M48.7372 7.99696V24.0464H52.4176V14.9864C52.4176 12.7207 53.761 11.6204 55.6306 11.6204H57.794V7.93188H56.3918C54.5516 7.93188 53.323 8.54712 52.7675 10.3278H52.3589V7.99696H48.7346H48.7372Z" fill="black"/>
<path d="M30.0949 15.6342C30.0949 10.8129 27.2612 7.54443 23.052 7.54443C18.8428 7.54443 15.7767 11.0406 15.7767 15.8945C15.7767 20.7484 18.9042 24.5019 23.2283 24.5019C27.1143 24.5019 28.8103 22.2362 29.8012 20.5531L26.7912 18.6128C26.2944 19.7457 25.2127 21.0087 23.1669 21.0087C21.121 21.0087 19.6895 19.3582 19.5426 17.2226H30.0896V15.6372L30.0949 15.6342ZM19.5773 14.3712C19.8684 12.3983 20.9501 11.0377 23.0253 11.0377C24.9243 11.0377 26.0941 12.3332 26.3558 14.3712H19.5773Z" fill="black"/>
<path d="M75.472 1.39505V24.0464H79.1524V15.7614C79.1524 12.913 80.4077 11.295 82.7767 11.295C84.8813 11.295 86.0484 12.6231 86.0484 14.8534V24.0435H89.7288V14.4659C89.7288 10.2923 87.3037 7.73376 84.0907 7.73376C81.4306 7.73376 80.0872 9.09143 79.5023 10.5822H79.1524V1.39209H75.472V1.39505Z" fill="black"/>
<path d="M92.8269 7.99694V24.0463H96.5073V14.2735C96.5073 12.2681 97.6184 11.2979 99.138 11.2979C100.54 11.2979 101.504 12.1379 101.504 13.6287V24.0493H105.185V14.2765C105.185 12.2711 106.296 11.3009 107.816 11.3009C109.218 11.3009 110.182 12.1409 110.182 13.6317V24.0523H113.862V13.3093C113.862 9.97575 111.728 7.74255 109.071 7.74255C106.763 7.74255 105.593 8.97303 104.95 10.4608H104.541C103.927 8.84288 102.554 7.74255 100.684 7.74255C98.668 7.74255 97.4715 8.84288 96.8572 10.3958H96.4485V7.99989H92.8242L92.8269 7.99694Z" fill="black"/>
<path d="M130.403 15.6342C130.403 10.8129 127.569 7.54443 123.36 7.54443C119.15 7.54443 116.084 11.0406 116.084 15.8945C116.084 20.7484 119.212 24.5019 123.536 24.5019C127.422 24.5019 129.118 22.2362 130.109 20.5531L127.099 18.6128C126.602 19.7457 125.52 21.0087 123.475 21.0087C121.429 21.0087 119.997 19.3582 119.85 17.2226H130.397V15.6372L130.403 15.6342ZM119.885 14.3712C120.176 12.3983 121.258 11.0377 123.333 11.0377C125.232 11.0377 126.402 12.3332 126.663 14.3712H119.885Z" fill="black"/>
<path d="M123.392 47.9516C122.884 47.9516 122.401 47.8451 121.958 47.6351C121.514 47.4251 121.124 47.1145 120.793 46.7123C120.465 46.3129 120.2 45.816 120.011 45.2392C119.821 44.6625 119.725 43.9969 119.725 43.2604C119.725 42.5919 119.81 41.9649 119.981 41.397C120.152 40.8261 120.406 40.3262 120.734 39.9091C121.063 39.495 121.479 39.1638 121.966 38.9301C122.452 38.6964 123.023 38.5781 123.656 38.5781C124.249 38.5781 124.781 38.6875 125.232 38.9005C125.683 39.1135 126.092 39.4211 126.447 39.8115L126.482 39.85L126.001 40.5806C125.945 40.6604 125.892 40.7226 125.841 40.7669C125.726 40.8645 125.504 40.8793 125.288 40.7255C125.192 40.6545 125.074 40.5776 124.941 40.4948C124.81 40.412 124.647 40.3351 124.463 40.2671C124.279 40.199 124.043 40.1635 123.766 40.1635C123.405 40.1635 123.085 40.2345 122.815 40.3765C122.545 40.5185 122.318 40.7255 122.137 40.9888C121.952 41.255 121.816 41.5803 121.725 41.9619C121.634 42.3464 121.589 42.7842 121.589 43.2634C121.589 43.7425 121.64 44.2099 121.739 44.5944C121.837 44.9789 121.979 45.3073 122.163 45.5676C122.345 45.8278 122.569 46.029 122.826 46.165C123.085 46.3011 123.381 46.3691 123.704 46.3691C124.027 46.3691 124.289 46.3248 124.487 46.242C124.687 46.1562 124.858 46.0615 124.992 45.958C125.128 45.8545 125.245 45.7569 125.341 45.6711C125.448 45.5735 125.566 45.5261 125.691 45.5261C125.849 45.5261 125.969 45.5942 126.055 45.7273L126.565 46.4579L126.538 46.4963C126.34 46.7655 126.116 46.9933 125.876 47.1766C125.635 47.36 125.376 47.5109 125.109 47.6292C124.842 47.7445 124.559 47.8274 124.27 47.8806C123.982 47.9309 123.688 47.9575 123.394 47.9575L123.392 47.9516ZM131.223 47.9516C130.614 47.9516 130.058 47.8392 129.569 47.6203C129.081 47.4014 128.653 47.0849 128.306 46.6768C127.959 46.2715 127.686 45.7746 127.5 45.1978C127.313 44.624 127.219 43.9733 127.219 43.2575C127.219 42.5417 127.313 41.8909 127.5 41.3171C127.686 40.7433 127.959 40.2463 128.306 39.8441C128.653 39.4418 129.081 39.1253 129.569 38.9064C130.058 38.6875 130.616 38.5752 131.223 38.5752C131.829 38.5752 132.379 38.6875 132.868 38.9064C133.357 39.1253 133.781 39.4418 134.128 39.8441C134.473 40.2463 134.743 40.7433 134.932 41.3171C135.119 41.8909 135.213 42.5446 135.213 43.2575C135.213 43.9703 135.119 44.624 134.932 45.1978C134.745 45.7716 134.476 46.2715 134.128 46.6768C133.781 47.0849 133.359 47.4014 132.868 47.6203C132.379 47.8392 131.824 47.9516 131.223 47.9516ZM131.223 40.1694C130.504 40.1694 129.962 40.4386 129.615 40.9681C129.262 41.5034 129.086 42.2784 129.086 43.2693C129.086 44.2602 129.265 45.0322 129.615 45.5616C129.962 46.0852 130.504 46.3514 131.223 46.3514C131.941 46.3514 132.467 46.0852 132.812 45.5616C133.162 45.0322 133.338 44.2602 133.338 43.2693C133.338 42.2784 133.162 41.5034 132.812 40.9681C132.467 40.4386 131.933 40.1694 131.223 40.1694ZM143.767 47.8215H141.957V42.0477C141.957 41.462 141.834 41.0006 141.591 40.6782C141.35 40.3587 140.979 40.199 140.485 40.199C140.114 40.199 139.767 40.2937 139.449 40.483C139.136 40.6693 138.837 40.9267 138.559 41.2461V47.8244H136.74V38.723H137.83C138.087 38.723 138.258 38.8621 138.33 39.1283L138.434 39.8441C138.586 39.6755 138.746 39.5217 138.907 39.3826C139.096 39.22 139.302 39.078 139.515 38.9567C139.729 38.8384 139.962 38.7437 140.202 38.6787C140.442 38.6136 140.709 38.5811 140.995 38.5811C141.446 38.5811 141.847 38.6668 142.189 38.8325C142.531 39.0011 142.825 39.2407 143.06 39.5453C143.295 39.85 143.474 40.2197 143.591 40.6457C143.709 41.0686 143.767 41.5419 143.767 42.0507V47.8244V47.8215ZM148.316 47.9546C147.854 47.9546 147.429 47.851 147.052 47.644C146.676 47.4369 146.347 47.1352 146.078 46.7418C145.811 46.3514 145.6 45.8604 145.453 45.2806C145.306 44.7068 145.231 44.0383 145.231 43.2959C145.231 42.6215 145.314 41.9915 145.477 41.4206C145.64 40.8468 145.877 40.341 146.182 39.918C146.486 39.4921 146.866 39.1549 147.301 38.9153C147.739 38.6757 148.236 38.5515 148.775 38.5515C149.259 38.5515 149.675 38.6373 150.014 38.8088C150.314 38.9597 150.589 39.1638 150.834 39.4181V35.0316H152.653V47.8215H151.563C151.312 47.8215 151.144 47.6824 151.072 47.4162L150.939 46.5584C150.615 46.9578 150.247 47.289 149.843 47.5405C149.405 47.8155 148.89 47.9546 148.31 47.9546H148.316ZM149.173 40.1369C148.527 40.1369 148.014 40.4031 147.651 40.9267C147.285 41.4561 147.098 42.2547 147.098 43.2959C147.098 43.8402 147.141 44.3105 147.223 44.695C147.306 45.0766 147.426 45.3901 147.581 45.6297C147.734 45.8663 147.921 46.0408 148.14 46.1473C148.359 46.2538 148.612 46.31 148.887 46.31C149.309 46.31 149.678 46.2065 149.985 46.0053C150.29 45.8042 150.575 45.5173 150.837 45.1505V41.0095C150.607 40.6871 150.356 40.4593 150.084 40.3321C149.806 40.202 149.502 40.1339 149.176 40.1339L149.173 40.1369ZM157.33 47.9634C156.878 47.9634 156.475 47.8777 156.131 47.712C155.786 47.5464 155.492 47.3068 155.257 46.9992C155.022 46.6945 154.843 46.3248 154.726 45.8988C154.608 45.4759 154.549 45.0026 154.549 44.4938V38.7201H156.368V44.4938C156.368 45.0795 156.491 45.5409 156.734 45.8633C156.975 46.1828 157.346 46.3425 157.84 46.3425C158.206 46.3425 158.55 46.2479 158.868 46.0645C159.181 45.8811 159.48 45.6267 159.758 45.3073V38.7201H161.576V47.8215H160.487C160.236 47.8215 160.067 47.6824 159.995 47.4162L159.886 46.6916C159.739 46.8572 159.581 47.014 159.418 47.1559C159.229 47.3216 159.023 47.4665 158.809 47.5848C158.596 47.7031 158.361 47.7978 158.118 47.8629C157.875 47.9279 157.608 47.9605 157.33 47.9605V47.9634ZM166.766 47.9546C166.258 47.9546 165.775 47.8481 165.332 47.6381C164.888 47.4281 164.498 47.1175 164.167 46.7152C163.839 46.3159 163.574 45.819 163.385 45.2422C163.195 44.6654 163.099 43.9999 163.099 43.2634C163.099 42.5949 163.184 41.9678 163.355 41.3999C163.526 40.829 163.78 40.3292 164.108 39.9121C164.437 39.498 164.853 39.1667 165.34 38.9331C165.828 38.6994 166.397 38.5811 167.03 38.5811C167.623 38.5811 168.155 38.6905 168.606 38.9035C169.057 39.1164 169.466 39.4241 169.821 39.8145L169.856 39.8529L169.375 40.5835C169.319 40.6634 169.266 40.7255 169.215 40.7699C169.1 40.8675 168.878 40.8823 168.662 40.7285C168.566 40.6575 168.448 40.5806 168.315 40.4978C168.184 40.4149 168.021 40.338 167.837 40.27C167.652 40.202 167.417 40.1665 167.14 40.1665C166.779 40.1665 166.459 40.2375 166.189 40.3794C165.919 40.5214 165.692 40.7285 165.51 40.9917C165.326 41.2579 165.19 41.5833 165.099 41.9649C165.008 42.3494 164.963 42.7872 164.963 43.2663C164.963 43.7455 165.014 44.2129 165.113 44.5974C165.211 44.9819 165.353 45.3102 165.537 45.5705C165.719 45.8308 165.943 46.0319 166.2 46.168C166.459 46.3041 166.755 46.3721 167.078 46.3721C167.401 46.3721 167.663 46.3277 167.861 46.2449C168.061 46.1591 168.232 46.0645 168.366 45.961C168.502 45.8574 168.619 45.7598 168.715 45.674C168.822 45.5764 168.94 45.5291 169.065 45.5291C169.223 45.5291 169.343 45.5971 169.429 45.7302L169.939 46.4608L169.912 46.4993C169.714 46.7684 169.49 46.9962 169.25 47.1796C169.009 47.363 168.75 47.5138 168.483 47.6322C168.216 47.7475 167.933 47.8303 167.644 47.8836C167.356 47.9339 167.062 47.9605 166.768 47.9605L166.766 47.9546ZM180.494 47.9546C179.885 47.9546 179.329 47.8422 178.84 47.6233C178.352 47.4044 177.924 47.0879 177.577 46.6797C177.23 46.2745 176.958 45.7746 176.771 45.2008C176.584 44.627 176.49 43.9733 176.49 43.2604C176.49 42.5476 176.584 41.8939 176.771 41.3201C176.958 40.7462 177.23 40.2493 177.577 39.847C177.924 39.4448 178.352 39.1283 178.84 38.9094C179.329 38.6905 179.887 38.5781 180.494 38.5781C181.1 38.5781 181.65 38.6905 182.139 38.9094C182.63 39.1283 183.052 39.4448 183.4 39.847C183.744 40.2493 184.014 40.7462 184.203 41.3201C184.39 41.8939 184.484 42.5476 184.484 43.2604C184.484 43.9733 184.39 44.627 184.203 45.2008C184.017 45.7746 183.747 46.2745 183.4 46.6797C183.055 47.0879 182.63 47.4044 182.139 47.6233C181.65 47.8422 181.095 47.9546 180.494 47.9546ZM180.494 40.1724C179.773 40.1724 179.233 40.4416 178.886 40.971C178.533 41.5064 178.354 42.2814 178.354 43.2722C178.354 44.2631 178.533 45.0351 178.883 45.5646C179.23 46.0881 179.773 46.3544 180.491 46.3544C181.209 46.3544 181.736 46.0881 182.08 45.5646C182.43 45.0351 182.606 44.2631 182.606 43.2722C182.606 42.2814 182.43 41.5064 182.08 40.971C181.736 40.4416 181.201 40.1724 180.491 40.1724H180.494ZM187.83 47.8244H186.012V38.723H187.061C187.259 38.723 187.392 38.7645 187.473 38.8502C187.55 38.9331 187.603 39.0691 187.633 39.2673L187.718 40.2375C187.959 39.7494 188.244 39.3531 188.568 39.0602C188.936 38.726 189.385 38.5574 189.898 38.5574C190.077 38.5574 190.248 38.5811 190.405 38.6254C190.563 38.6698 190.71 38.7408 190.835 38.8325L190.862 38.8532L190.739 40.3173C190.712 40.4416 190.675 40.5185 190.619 40.5658C190.565 40.6131 190.493 40.6368 190.405 40.6368C190.317 40.6368 190.205 40.622 190.053 40.5865C189.908 40.554 189.753 40.5392 189.593 40.5392C189.363 40.5392 189.158 40.5776 188.982 40.6486C188.805 40.7226 188.648 40.829 188.506 40.971C188.365 41.113 188.239 41.2875 188.132 41.4946C188.025 41.6987 187.924 41.9353 187.83 42.1985V47.8303V47.8244ZM173.833 47.9664C173.146 47.9664 172.612 47.7475 172.238 47.3186C171.867 46.8897 171.677 46.2774 171.677 45.5025V40.3351H170.841C170.841 40.3351 170.825 40.3351 170.817 40.3351H170.427V38.8443H171.76V35.774H173.491V38.8473H175.745V40.3351H173.496V45.3723C173.496 45.677 173.563 45.9136 173.696 46.0704C173.83 46.2301 174.004 46.307 174.228 46.307C174.354 46.307 174.463 46.2893 174.551 46.2538C174.642 46.2183 174.722 46.1769 174.789 46.1355C174.856 46.0941 174.914 46.0526 174.965 46.0142C175.024 45.9698 175.085 45.9462 175.144 45.9462C175.262 45.9462 175.355 46.0142 175.422 46.1532L175.953 47.1204L175.919 47.153C175.649 47.4162 175.328 47.6203 174.962 47.7593C174.597 47.8984 174.217 47.9693 173.833 47.9693V47.9664Z" fill="black"/>
<path d="M108.614 36.9427C108.614 38.0696 107.789 38.9836 106.771 38.9836C105.754 38.9836 104.926 38.0696 104.926 36.9427C104.926 35.8157 105.751 34.8988 106.771 34.8988C107.791 34.8988 108.614 35.8128 108.614 36.9427Z" fill="#B2E032"/>
<path d="M112.751 36.9427C112.751 38.0696 111.926 38.9836 110.906 38.9836C109.885 38.9836 109.06 38.0696 109.06 36.9427C109.06 35.8157 109.885 34.8988 110.906 34.8988C111.926 34.8988 112.751 35.8128 112.751 36.9427Z" fill="#B2E032"/>
<path d="M108.614 41.4386C108.614 42.5685 107.789 43.4825 106.771 43.4825C105.754 43.4825 104.926 42.5685 104.926 41.4386C104.926 40.3087 105.751 39.3977 106.771 39.3977C107.791 39.3977 108.614 40.3117 108.614 41.4386Z" fill="#B2E032"/>
<path d="M112.751 41.4386C112.751 42.5685 111.926 43.4825 110.906 43.4825C109.885 43.4825 109.06 42.5685 109.06 41.4386C109.06 40.3087 109.885 39.3977 110.906 39.3977C111.926 39.3977 112.751 40.3117 112.751 41.4386Z" fill="#B2E032"/>
<path d="M116.923 41.5629C116.923 42.6928 116.098 43.6068 115.08 43.6068C114.063 43.6068 113.237 42.6928 113.237 41.5629C113.237 40.433 114.063 39.522 115.08 39.522C116.098 39.522 116.923 40.436 116.923 41.5629Z" fill="#89C32E"/>
<path d="M112.751 45.9405C112.751 47.0674 111.926 47.9814 110.906 47.9814C109.885 47.9814 109.06 47.0674 109.06 45.9405C109.06 44.8135 109.885 43.8966 110.906 43.8966C111.926 43.8966 112.751 44.8106 112.751 45.9405Z" fill="#89C32E"/>
<path d="M116.923 45.9405C116.923 47.0674 116.098 47.9814 115.08 47.9814C114.063 47.9814 113.237 47.0674 113.237 45.9405C113.237 44.8135 114.063 43.8966 115.08 43.8966C116.098 43.8966 116.923 44.8106 116.923 45.9405Z" fill="#89C32E"/>
<path d="M1.71495 38.7559H3.58185V39.9361C4.18812 39.2291 5.187 38.5754 6.38352 38.5754C8.16763 38.5754 9.15048 39.8089 9.15048 41.5866V47.8247H7.28359V42.1101C7.28359 41.0038 6.76011 40.3886 5.77725 40.3886C4.89322 40.3886 4.0893 41.0778 3.58185 41.9119V47.8247H1.71495V38.7559Z" fill="black"/>
<path d="M10.6622 43.2903C10.6622 40.5868 12.4303 38.5754 15.0023 38.5754C17.5743 38.5754 19.3263 40.5898 19.3263 43.2903C19.3263 45.9908 17.5582 48.0051 15.0023 48.0051C12.4463 48.0051 10.6622 45.9908 10.6622 43.2903ZM17.4594 43.2903C17.4594 41.4416 16.3938 40.4064 15.0023 40.4064C13.6108 40.4064 12.5291 41.4416 12.5291 43.2903C12.5291 45.139 13.6108 46.1742 15.0023 46.1742C16.3938 46.1742 17.4594 45.139 17.4594 43.2903Z" fill="black"/>
<path d="M19.847 38.7551H21.7967L23.1241 43.9965L23.3378 45.5198H23.3698L23.5995 43.9965L25.0231 38.7551H26.8072L28.1986 43.9965L28.4444 45.5198H28.4764L28.6901 43.9965L30.0335 38.7551H31.9672L29.526 47.824H27.5122L25.9071 41.2575L24.318 47.824H22.3042L19.847 38.7551Z" fill="black"/>
<path d="M36.39 45.3046C36.39 43.5802 37.5865 42.6189 39.2237 42.4385L41.5981 42.1663V41.6753C41.5981 40.6963 40.9598 40.223 40.025 40.223C39.189 40.223 38.6175 40.6756 38.4706 41.5836L36.8494 41.4919L36.7666 41.4209C37.0791 39.4983 38.4866 38.5725 40.0917 38.5725C42.0414 38.5725 43.4169 39.7142 43.4169 41.6546V45.3727C43.4169 45.9524 43.6306 46.2807 44.0713 46.2807C44.1861 46.2807 44.2849 46.263 44.4318 46.2275L44.4799 46.263V47.7508C44.0713 47.8957 43.7588 47.9312 43.449 47.9312C42.7278 47.9312 42.0254 47.6059 41.7129 46.6061H41.6649C41.0265 47.3692 40.1265 48.0022 38.9967 48.0022C37.5385 48.0022 36.3927 46.9669 36.3927 45.2987L36.39 45.3046ZM41.5981 44.9408V43.6157L39.4694 43.8878C38.6014 44.015 38.1768 44.5415 38.1768 45.1922C38.1768 45.9376 38.6842 46.3162 39.3386 46.3162C40.2547 46.3162 40.9437 45.772 41.5981 44.9378V44.9408Z" fill="black"/>
<path d="M49.4264 38.7559H51.2933V39.7527C51.8328 39.1345 52.6687 38.5725 53.9133 38.5725C55.8283 38.5725 57.7139 40.2408 57.7139 43.2874C57.7139 46.334 55.879 48.0022 53.7985 48.0022C52.7996 48.0022 51.8835 47.6029 51.2933 46.967V51.4481H49.4264V38.7529V38.7559ZM55.831 43.2903C55.831 41.2967 54.784 40.3531 53.4887 40.3531C52.2922 40.3531 51.2933 41.3145 51.2933 42.6189V43.944C51.2933 45.2514 52.2922 46.2304 53.4887 46.2304C54.7813 46.2304 55.831 45.2869 55.831 43.2933V43.2903Z" fill="black"/>
<path d="M58.7875 45.3046C58.7875 43.5802 59.984 42.6189 61.6212 42.4385L63.9955 42.1663V41.6753C63.9955 40.6963 63.3572 40.223 62.4224 40.223C61.5865 40.223 61.0149 40.6756 60.868 41.5836L59.2468 41.4919L59.164 41.4209C59.4765 39.4983 60.884 38.5725 62.4892 38.5725C64.4389 38.5725 65.8144 39.7142 65.8144 41.6546V45.3727C65.8144 45.9524 66.028 46.2807 66.4687 46.2807C66.5836 46.2807 66.6824 46.263 66.8293 46.2275L66.8774 46.263V47.7508C66.4687 47.8957 66.1562 47.9312 65.8464 47.9312C65.1253 47.9312 64.4229 47.6059 64.1104 46.6061H64.0623C63.424 47.3692 62.5239 48.0022 61.3942 48.0022C59.9359 48.0022 58.7901 46.9669 58.7901 45.2987L58.7875 45.3046ZM63.9955 44.9408V43.6157L61.8669 43.8878C60.9989 44.015 60.5742 44.5415 60.5742 45.1922C60.5742 45.9376 61.0817 46.3162 61.736 46.3162C62.6521 46.3162 63.3412 45.772 63.9955 44.9378V44.9408Z" fill="black"/>
<path d="M68.2154 38.7559H70.0823V39.8799C70.6379 39.173 71.4258 38.5725 72.4407 38.5725C72.7345 38.5725 72.9802 38.6257 73.1458 38.7174L72.9 40.3857L72.8333 40.4389C72.7024 40.4034 72.5555 40.3857 72.2938 40.3857C71.3937 40.3857 70.5898 40.9654 70.0823 42.0717V47.8218H68.2154V38.7529V38.7559Z" fill="black"/>
<path d="M75.5601 45.4843V40.5328H74.0377V38.7551H75.5601V36.0901H75.707L77.443 36.7615V38.7551H79.2778V40.5328H77.443V45.3039C77.443 45.9014 77.7555 46.2474 78.3778 46.2474C78.6902 46.2474 78.8852 46.2119 79.147 46.138L79.195 46.1735V47.824C78.7196 47.9512 78.3751 48.0044 77.8196 48.0044C76.4762 48.0044 75.5601 47.188 75.5601 45.4843Z" fill="black"/>
<path d="M83.9437 43.2903C83.9437 40.5868 85.7118 38.5754 88.2838 38.5754C90.8558 38.5754 92.6078 40.5898 92.6078 43.2903C92.6078 45.9908 90.8397 48.0051 88.2838 48.0051C85.7278 48.0051 83.9437 45.9908 83.9437 43.2903ZM90.7409 43.2903C90.7409 41.4416 89.6753 40.4064 88.2838 40.4064C86.8923 40.4064 85.8106 41.4416 85.8106 43.2903C85.8106 45.139 86.8923 46.1742 88.2838 46.1742C89.6753 46.1742 90.7409 45.139 90.7409 43.2903Z" fill="black"/>
<path d="M94.6992 40.5333H93.3077V38.7556H94.6992V37.1584C94.6992 35.218 95.9118 34.4016 97.2712 34.4016C97.7306 34.4016 98.0911 34.4933 98.3689 34.582V36.2858L98.3208 36.3213C98.1232 36.2503 97.8134 36.1586 97.4849 36.1586C96.9454 36.1586 96.5848 36.484 96.5848 37.1761V38.7526H98.3369V40.5303H96.5848V47.8215H94.7019V40.5303L94.6992 40.5333Z" fill="black"/>
</g>
<defs>
<clipPath id="clip0_1_109">
<rect width="191.206" height="50.8961" fill="white" transform="translate(0.294052 0.552002)"/>
</clipPath>
</defs>
</svg>
