<svg width="48" height="48" viewBox="0 0 48 48" fill="none" xmlns="http://www.w3.org/2000/svg">
<path d="M36.9164 19.8984C36.9161 23.0858 36.0194 26.2086 34.3288 28.9106C32.6383 31.6125 30.2218 33.7845 27.3554 35.1786C24.4893 36.5726 21.2887 37.1323 18.1195 36.7941C14.9502 36.4558 11.94 35.233 9.43262 33.2653" stroke="#3C3843" stroke-width="3" stroke-linecap="round" stroke-linejoin="round"/>
<path d="M3.00012 21.4338C2.95512 20.9339 2.93262 20.4226 2.93262 19.9001C2.93211 16.5572 3.91767 13.2885 5.76595 10.503C7.61421 7.71762 10.2431 5.53927 13.3234 4.24068C16.4037 2.9421 19.7987 2.581 23.0832 3.20257C26.3678 3.82413 29.3961 5.40076 31.7888 7.7351" stroke="#3C3843" stroke-width="3" stroke-linecap="round" stroke-linejoin="round"/>
<path d="M31.9404 31.9141L45.0936 45.0934" stroke="#3C3843" stroke-width="3" stroke-linecap="round" stroke-linejoin="round"/>
<path d="M45.0942 13.3519V4.3125H36.0811" stroke="#FEB534" stroke-width="3" stroke-linecap="round" stroke-linejoin="round"/>
<path d="M2.90625 32.4375L18.5063 16.8431C18.8395 16.5107 19.2909 16.3241 19.7616 16.3241C20.2322 16.3241 20.6837 16.5107 21.0169 16.8431L25.6031 21.4312C25.7679 21.5962 25.9635 21.7271 26.1789 21.8166C26.3944 21.9058 26.6252 21.9519 26.8584 21.9519C27.0917 21.9519 27.3225 21.9058 27.5379 21.8166C27.7534 21.7271 27.9489 21.5962 28.1138 21.4312L45.0938 4.3125" stroke="#FEB534" stroke-width="3" stroke-linecap="round" stroke-linejoin="round"/>
</svg>
