<svg width="130" height="28" viewBox="0 0 130 28" fill="none" xmlns="http://www.w3.org/2000/svg">
<g clip-path="url(#clip0_1_155)">
<path d="M1.9706 0.493633C2.39217 0.41128 2.89805 0.493633 3.40393 0.493633H28.1079C28.5294 0.493633 28.951 0.740691 29.1196 1.15246C29.2039 1.64657 29.2039 2.05834 29.2039 2.55246V26.8466C29.2039 27.2583 28.951 27.7525 28.5294 27.8348C28.1079 27.9172 27.6863 27.8348 27.349 27.8348H2.47648C1.88628 27.9172 1.3804 27.3407 1.46471 26.8466C1.29609 18.3642 1.29609 9.96422 1.29609 1.48187C1.21177 1.0701 1.54903 0.658338 1.9706 0.493633Z" fill="black"/>
<path d="M118.998 4.5293H121.022V15.2352C123.045 13.1764 125.069 11.1999 127.092 9.14106H129.284C127.682 10.7881 126.165 12.3528 124.563 13.9999C126.249 16.3058 127.851 18.5293 129.453 20.8352H127.345C125.912 18.9411 124.647 17.0469 123.214 15.1528C122.455 15.894 121.696 16.5528 120.937 17.294V20.9175H118.914C118.998 15.3999 118.998 9.96459 118.998 4.5293ZM90.2472 12.8469C90.2472 14.8234 89.657 16.8822 88.308 18.4469C86.9589 20.0117 84.8511 20.8352 82.7433 20.8352H76.8413V4.85871H82.9119C84.9354 4.94106 87.0433 5.76459 88.3923 7.3293C89.657 8.894 90.2472 10.8705 90.2472 12.8469ZM87.6334 9.88224C87.0432 8.31753 85.5256 7.08224 83.8393 6.75283C82.2374 6.50577 80.5511 6.67047 78.8648 6.58812V19.1058C80.4668 19.0234 82.1531 19.1881 83.755 18.9411C85.4413 18.6117 86.8746 17.3764 87.5491 15.7293C88.308 13.9175 88.3923 11.7764 87.6334 9.88224ZM107.784 10.0469C106.773 10.8705 106.435 12.3528 106.857 13.5058C107.11 14.2469 107.784 14.6587 108.459 14.9058C109.724 15.3999 111.073 15.6469 112.422 15.9764C113.012 16.1411 113.686 16.3881 113.939 16.9646C114.277 17.6234 114.024 18.5293 113.349 18.9411C112.59 19.5175 111.494 19.5175 110.567 19.4352C109.218 19.3528 107.953 18.694 106.941 17.8705C106.688 18.2822 106.351 18.7764 106.098 19.1881C107.616 20.3411 109.471 20.8352 111.41 20.8352C112.843 20.8352 114.53 20.4234 115.457 19.2705C116.384 18.1175 116.384 16.0587 115.035 15.2352C113.349 14.1646 111.157 14.1646 109.386 13.3411C108.543 13.0117 108.543 11.9411 108.881 11.2822C109.218 10.7058 109.808 10.4587 110.398 10.3764C112 10.0469 113.686 10.5411 114.867 11.6116C115.204 11.1999 115.457 10.7881 115.794 10.3764C114.614 9.38812 113.012 8.894 111.494 8.81165C110.145 8.894 108.796 9.22341 107.784 10.0469ZM42.0197 9.30577C40.9236 9.55283 39.8276 10.294 39.4903 11.3646C39.1531 12.3528 39.2374 13.6705 40.1648 14.2469C42.0197 15.3999 44.3805 15.2352 46.2354 16.3058C47.2472 16.9646 47.1629 18.5293 46.3197 19.2705C45.308 20.094 43.8746 20.1764 42.6099 20.0116C41.4295 19.8469 40.2491 19.2705 39.406 18.4469C39.2374 18.694 38.9844 18.9411 38.8158 19.1881C40.2491 20.5881 42.357 21.0822 44.2962 20.9175C45.3923 20.8352 46.5727 20.5058 47.3315 19.6822C48.0903 18.9411 48.3432 17.7058 48.006 16.7175C47.753 15.9764 47.0785 15.4822 46.3197 15.1528C44.7178 14.494 42.8629 14.3293 41.2609 13.6705C40.3334 13.2587 40.2491 12.0234 40.6707 11.1999C41.0923 10.3764 42.0197 10.0469 42.9472 9.96459C44.4648 9.79989 46.1511 10.2116 47.1629 11.3646C47.4158 11.1999 47.5844 10.9528 47.8374 10.7881C46.404 9.22341 44.0432 8.81165 42.0197 9.30577ZM63.0138 9.30577C64.7001 13.1764 66.3021 17.0469 67.904 20.8352H69.0844C70.7707 16.9646 72.3727 13.1764 74.0589 9.30577H72.9629C71.5295 12.7646 70.0962 16.1411 68.6629 19.5999C68.4099 19.2705 68.3256 18.8587 68.0727 18.4469L64.2785 9.30577H63.0138ZM62.0021 15.4822H51.6315C51.8001 17.2116 52.8119 18.8587 54.4138 19.5999C56.4374 20.6705 59.2197 19.8469 60.2315 17.8705L61.2432 18.1175C59.8942 20.8352 56.1001 21.6587 53.4864 20.2587C51.2099 19.0234 50.0295 16.3058 50.5354 13.8352C50.8727 12.2705 51.8001 10.7881 53.2334 9.88224C54.9197 8.81165 57.1962 8.81165 58.9668 9.71753C60.9903 10.8705 62.1707 13.2587 62.0021 15.4822ZM60.906 14.6587C60.8217 13.0116 59.8099 11.3646 58.208 10.6234C56.606 9.88224 54.5825 10.1293 53.3178 11.2822C52.306 12.1058 51.8001 13.4234 51.6315 14.6587C54.7511 14.5764 57.7864 14.5764 60.906 14.6587ZM104.581 15.7293H94.7158C94.8001 17.1293 95.5589 18.4469 96.8236 19.1058C98.5942 20.1764 101.124 19.5175 102.051 17.7058C102.641 17.8705 103.231 17.9528 103.822 18.1999C102.304 21.1646 97.8354 21.9058 95.1374 20.094C92.8609 18.5293 92.0178 15.3999 92.9452 12.9293C93.4511 11.6116 94.3785 10.4587 95.6432 9.79988C97.9197 8.48224 101.208 8.894 102.979 10.8705C104.243 12.1058 104.749 13.9175 104.581 15.7293ZM102.726 14.2469C102.641 13.0116 101.967 11.7764 100.871 11.0352C99.5217 10.1293 97.6668 10.1293 96.4021 11.1175C95.3903 11.8587 94.8001 13.094 94.7158 14.2469H102.726Z" fill="#0D0D0D"/>
<path d="M20.098 6.50586H23.049V22.4823H20.1823C20.098 17.1294 20.098 11.7764 20.098 6.50586ZM13.7745 11.7764V22.5647H16.7255V11.7764H13.7745ZM7.53528 17.1294V22.4823H10.4863V17.1294H7.53528Z" fill="white"/>
</g>
<defs>
<clipPath id="clip0_1_155">
<rect width="129" height="28" fill="white" transform="translate(0.705933)"/>
</clipPath>
</defs>
</svg>
