<svg width="116" height="32" viewBox="0 0 116 32" fill="none" xmlns="http://www.w3.org/2000/svg">
<g clip-path="url(#clip0_501_109)">
<g clip-path="url(#clip1_501_109)">
<path d="M10.3995 32C3.46576 32 0 28.5345 0 21.6012V10.401C0 3.46552 3.46576 0 10.3995 0H21.6005C28.5342 0 32 3.46552 32 10.3988V21.599C32 28.5323 28.5342 31.9978 21.6005 31.9978H10.3995V32Z" fill="#FB523B"/>
<path fill-rule="evenodd" clip-rule="evenodd" d="M22.4444 7.55556C21.524 7.55556 20.7778 8.30175 20.7778 9.22222V21.6667C20.7778 22.5871 21.524 23.3333 22.4444 23.3333C23.3649 23.3333 24.1111 22.5871 24.1111 21.6667V9.22222C24.1111 8.30175 23.3649 7.55556 22.4444 7.55556ZM14.3333 13.8889C14.3333 12.9684 15.0795 12.2222 16 12.2222C16.9205 12.2222 17.6667 12.9684 17.6667 13.8889V21.6667C17.6667 22.5871 16.9205 23.3333 16 23.3333C15.0795 23.3333 14.3333 22.5871 14.3333 21.6667V13.8889ZM7.88889 17.8889C7.88889 16.9684 8.63508 16.2222 9.55556 16.2222C10.476 16.2222 11.2222 16.9684 11.2222 17.8889V21.6667C11.2222 22.5871 10.476 23.3333 9.55556 23.3333C8.63508 23.3333 7.88889 22.5871 7.88889 21.6667V17.8889Z" fill="white"/>
<path fill-rule="evenodd" clip-rule="evenodd" d="M70.1978 17.6289C70.1978 14.24 72.1555 11.9089 75.4333 11.9089C76.8844 11.9089 78.0511 12.5244 78.6889 13.4267V7.33333H81.3733V23.1733H78.6889V21.7867C78.0511 22.7556 76.8178 23.3489 75.4778 23.3489C72.1555 23.3489 70.1978 21.0178 70.1978 17.6289ZM78.8644 17.6289C78.8644 15.5822 77.6755 14.24 75.8733 14.24C74.0711 14.24 72.8822 15.5822 72.8822 17.6289C72.8822 19.6756 74.0711 21.0178 75.8733 21.0178C77.6755 21.0178 78.8644 19.6756 78.8644 17.6289ZM38.8889 19.4755H41.3511C41.4622 20.5311 42.2756 21.1911 43.4844 21.1911C44.54 21.1911 45.2444 20.6622 45.2444 20.0022C45.2444 18.9662 44.1715 18.7816 42.9277 18.5676C41.2129 18.2726 39.1733 17.9218 39.1733 15.2067C39.1733 13.2711 40.8667 11.9067 43.1556 11.9067C45.7511 11.9067 47.5333 13.3355 47.6444 15.4933H45.18C45.0267 14.46 44.08 13.9311 43.2222 13.9311C42.2533 13.9311 41.6156 14.3711 41.6156 15.12C41.6156 16.1002 42.6449 16.2385 43.8621 16.4021C45.6224 16.6387 47.7756 16.928 47.7756 19.8933C47.7756 21.9844 46.0822 23.3467 43.4867 23.3467C40.8911 23.3467 39.02 21.8511 38.8889 19.4755ZM59.5666 19.4755C59.1489 21.8289 57.08 23.3467 54.3533 23.3467C50.7244 23.3467 48.7 20.4867 48.7 17.5822C48.7 14.6778 50.5044 11.9067 54.1333 11.9067C57.7622 11.9067 59.5222 14.6133 59.5222 17.2533C59.5222 17.6267 59.5 17.9578 59.4778 18.1778H51.2933C51.4911 19.96 52.6355 21.1044 54.3511 21.1044C55.7378 21.1044 56.64 20.5333 56.9244 19.4755H59.5644H59.5666ZM51.36 16.3955H56.8155C56.7044 14.9867 55.7378 13.9311 54.1311 13.9311C52.6133 13.9311 51.6444 14.7222 51.36 16.3955ZM62.3089 12.0844H59.5578H59.5556L63.6045 23.1733H66.1333L70.2044 12.0844H67.4333L64.8822 19.74L62.3089 12.0844ZM88.6045 23.3467C91.3311 23.3467 93.4 21.8289 93.8178 19.4755H93.8156H91.1756C90.8911 20.5333 89.9889 21.1044 88.6022 21.1044C86.8867 21.1044 85.7422 19.96 85.5445 18.1778H93.7289C93.7511 17.9578 93.7733 17.6267 93.7733 17.2533C93.7733 14.6133 92.0133 11.9067 88.3845 11.9067C84.7556 11.9067 82.9511 14.6778 82.9511 17.5822C82.9511 20.4867 84.9756 23.3467 88.6045 23.3467ZM91.0667 16.3955H85.6111C85.8956 14.7222 86.8645 13.9311 88.3822 13.9311C89.9889 13.9311 90.9556 14.9867 91.0667 16.3955ZM94.7133 19.4755H97.1755C97.2844 20.5311 98.1 21.1911 99.3089 21.1911C100.364 21.1911 101.069 20.6622 101.069 20.0022C101.069 18.9662 99.9959 18.7816 98.7521 18.5676C97.0373 18.2726 94.9978 17.9218 94.9978 15.2067C94.9978 13.2711 96.6911 11.9067 98.98 11.9067C101.576 11.9067 103.358 13.3355 103.469 15.4933H101.004C100.851 14.46 99.9044 13.9311 99.0467 13.9311C98.0778 13.9311 97.44 14.3711 97.44 15.12C97.44 16.1002 98.4693 16.2385 99.6865 16.4021C101.447 16.6387 103.6 16.928 103.6 19.8933C103.6 21.9844 101.907 23.3467 99.3111 23.3467C96.7156 23.3467 94.8444 21.8511 94.7133 19.4755ZM107.991 19.4978L109.311 18.2222H109.313L112.767 23.1711H116.044L111.16 16.44L115.669 12.0844H112.238L107.991 16.1333V7.33333H105.284V23.1711H107.991V19.4978Z" fill="#FB523B"/>
</g>
</g>
<defs>
<clipPath id="clip0_501_109">
<rect width="116" height="32" fill="white"/>
</clipPath>
<clipPath id="clip1_501_109">
<rect width="116.044" height="32" fill="white"/>
</clipPath>
</defs>
</svg>
