<svg width="48" height="48" viewBox="0 0 48 48" fill="none" xmlns="http://www.w3.org/2000/svg">
<path d="M5.71881 8.85543V23.1318C5.71885 27.6441 7.08629 32.0506 9.64086 35.7704C12.1954 39.4902 15.8172 42.3484 20.0288 43.9686L21.9807 44.7186C23.2804 45.2185 24.7197 45.2185 26.0194 44.7186L27.9713 43.9686C32.1829 42.3484 35.8047 39.4902 38.3592 35.7704C40.9139 32.0506 42.2813 27.6441 42.2813 23.1318V8.85543C42.2849 8.3182 42.1332 7.79138 41.8444 7.33833C41.5557 6.88529 41.1422 6.52529 40.6538 6.30168C35.4034 4.01003 29.7284 2.85291 24.0001 2.90605C18.2717 2.85291 12.5966 4.01003 7.34631 6.30168C6.85784 6.52529 6.44436 6.88529 6.15563 7.33833C5.8669 7.79138 5.71521 8.3182 5.71881 8.85543Z" stroke="#3C3843" stroke-width="3" stroke-linecap="round" stroke-linejoin="round"/>
<path d="M33.7496 22.5938C33.4802 24.4609 32.6798 26.2114 31.4438 27.6367C30.2078 29.0619 28.5883 30.102 26.778 30.6332C24.9677 31.1642 23.043 31.164 21.2329 30.6322C19.4228 30.1007 17.8036 29.0601 16.568 27.6345C15.3325 26.2088 14.5326 24.4581 14.2636 22.5909C13.9947 20.7236 14.268 18.8183 15.051 17.1019C15.834 15.3856 17.0937 13.9303 18.6802 12.9094C20.2667 11.8886 22.113 11.3451 23.9996 11.3438" stroke="white" stroke-width="3" stroke-linecap="round" stroke-linejoin="round"/>
<path d="M33.8436 13.8047L24.8699 22.7784C24.6389 23.0089 24.3261 23.1382 23.9999 23.1382C23.6736 23.1382 23.3609 23.0089 23.1299 22.7784L20.3174 19.9566" stroke="white" stroke-width="3" stroke-linecap="round" stroke-linejoin="round"/>
</svg>
