<svg width="48" height="48" viewBox="0 0 48 48" fill="none" xmlns="http://www.w3.org/2000/svg">
<g id="Stopwatch--Streamline-Ultimate.svg">
<path id="Vector" d="M35.25 15.5625L38.7656 12.0469" stroke="#FEB534" stroke-width="3" stroke-linecap="round" stroke-linejoin="round"/>
<path id="Vector_2" d="M38.0625 11.3438L39.4688 12.75" stroke="#FEB534" stroke-width="3" stroke-linecap="round" stroke-linejoin="round"/>
<path id="Vector_3" d="M24 11.3438V2.90625" stroke="#FEB534" stroke-width="3" stroke-linecap="round" stroke-linejoin="round"/>
<path id="Vector_4" d="M28.2188 2.90625H19.7812" stroke="#FEB534" stroke-width="3" stroke-linecap="round" stroke-linejoin="round"/>
<path id="Vector_5" d="M24 29.6249L16.9688 21.8418" stroke="#FEB534" stroke-width="3" stroke-linecap="round" stroke-linejoin="round"/>
<path id="Vector_6" d="M7.125 28.2188C7.125 30.4348 7.56148 32.6291 8.40952 34.6766C9.25759 36.7239 10.5006 38.5841 12.0676 40.1512C13.6346 41.7182 15.4949 42.9611 17.5422 43.8092C19.5896 44.6573 21.7839 45.0938 24 45.0938C26.2161 45.0938 28.4104 44.6573 30.4579 43.8092C32.5052 42.9611 34.3654 41.7182 35.9325 40.1512C37.4994 38.5841 38.7424 36.7239 39.5904 34.6766C40.4385 32.6291 40.875 30.4348 40.875 28.2188C40.875 26.0027 40.4385 23.8084 39.5904 21.7609C38.7424 19.7136 37.4994 17.8533 35.9325 16.2863C34.3654 14.7193 32.5052 13.4763 30.4579 12.6283C28.4104 11.7802 26.2161 11.3438 24 11.3438C21.7839 11.3438 19.5896 11.7802 17.5422 12.6283C15.4949 13.4763 13.6346 14.7193 12.0676 16.2863C10.5006 17.8533 9.25759 19.7136 8.40952 21.7609C7.56148 23.8084 7.125 26.0027 7.125 28.2188Z" stroke="white" stroke-width="3" stroke-linecap="round" stroke-linejoin="round"/>
</g>
</svg>
