<svg width="192" height="22" viewBox="0 0 192 22" fill="none" xmlns="http://www.w3.org/2000/svg">
<g clip-path="url(#clip0_1_148)">
<rect width="191.206" height="21.4514" transform="translate(0.5 0.274292)" fill="white"/>
<path d="M20.5048 7.36102C20.1556 6.64629 19.6049 6.13849 18.8527 5.83753C18.1274 5.53662 17.0797 5.38614 15.7097 5.38614C14.3397 5.38614 13.2786 5.499 12.5264 5.72471C11.8011 5.9316 11.4384 6.24193 11.4384 6.6557C11.4384 6.95662 11.5996 7.18233 11.922 7.33281C12.2712 7.48325 12.9025 7.61494 13.8159 7.72775L20.3436 8.48952C24.2387 8.94091 27.0191 9.66501 28.6846 10.6619C30.377 11.6399 31.2232 13.0411 31.2232 14.8655C31.2232 19.3418 26.1326 21.58 15.9515 21.58C6.2807 21.58 1.13641 19.1444 0.518555 14.273H10.7132C11.143 15.8341 12.9025 16.6147 15.9917 16.6147C19.2959 16.6147 20.948 16.1162 20.948 15.1194C20.948 14.7997 20.7197 14.5551 20.263 14.3859C19.8332 14.1978 19.1347 14.0473 18.1677 13.9345L12.9696 13.3702C8.9939 12.9377 6.05237 12.1947 4.14509 11.1415C2.2378 10.0694 1.28416 8.63995 1.28416 6.85317C1.28416 4.84072 2.58702 3.27022 5.19275 2.14173C7.82533 0.994429 11.4653 0.420776 16.1127 0.420776C20.4376 0.420776 23.7955 0.956813 26.1863 2.02888C28.604 3.08214 30.0009 4.66204 30.377 6.76856L20.5048 7.36102Z" fill="black"/>
<path d="M53.7778 0.928589H64.1739V11.9878C64.1739 15.2604 62.9115 17.6773 60.3861 19.2384C57.8879 20.7995 54.0196 21.58 48.7813 21.58C43.543 21.58 39.6612 20.7995 37.1361 19.2384C34.6378 17.6773 33.3887 15.2604 33.3887 11.9878V0.928589H43.7847V12.5803C43.7847 13.69 44.1742 14.4987 44.9533 15.0066C45.7323 15.5144 47.0083 15.7683 48.7813 15.7683C50.5543 15.7683 51.8302 15.5144 52.6093 15.0066C53.3883 14.4987 53.7778 13.69 53.7778 12.5803V0.928589Z" fill="black"/>
<path d="M68.3804 21.0722V0.928589H84.2561C92.6108 0.928589 96.7878 2.66835 96.7878 6.14785C96.7878 8.04749 95.2837 9.45812 92.2749 10.3797C94.1557 10.8123 95.5526 11.4236 96.4655 12.2135C97.4057 12.9846 97.876 13.9627 97.876 15.1476C97.876 17.0848 96.7747 18.5613 94.5716 19.5769C92.3957 20.5738 89.2127 21.0722 85.0221 21.0722H68.3804ZM83.8533 8.57412C85.9759 8.57412 87.0369 8.0757 87.0369 7.07888C87.0369 6.55225 86.7815 6.18547 86.2709 5.97859C85.7608 5.75291 84.9143 5.64005 83.7325 5.64005H77.809V8.57412H83.8533ZM84.095 16.3607C85.5191 16.3607 86.5262 16.2197 87.1174 15.9375C87.7353 15.6554 88.044 15.204 88.044 14.5834C88.044 13.9627 87.7217 13.5207 87.0771 13.2574C86.4593 12.9753 85.4386 12.8342 84.0144 12.8342H77.809V16.3607H84.095Z" fill="black"/>
<path d="M129.449 21.0722V11.2543L123.647 21.0722H116.192L110.39 11.2543V21.0722H101.082V0.928589H112.646L120.101 13.1445L127.555 0.928589H138.959V21.0722H129.449Z" fill="black"/>
<path d="M143.464 21.0722V0.928589H153.86V21.0722H143.464Z" fill="black"/>
<path d="M179.534 21.0722L173.328 15.1758L167.123 21.0722H155.639L167.043 10.6054L156.485 0.928589H168.614L173.53 5.95038L178.768 0.928589H190.252L179.896 10.4079L191.663 21.0722H179.534Z" fill="black"/>
</g>
<defs>
<clipPath id="clip0_1_148">
<rect width="191.206" height="21.4514" fill="white" transform="translate(0.5 0.274292)"/>
</clipPath>
</defs>
</svg>
