<svg width="103" height="103" viewBox="0 0 103 103" fill="none" xmlns="http://www.w3.org/2000/svg">
<path d="M95.7741 55.0237C95.0997 63.5 92.0065 71.6046 86.8612 78.3745C81.716 85.1446 74.7362 90.2952 66.7496 93.2143C58.7635 96.134 50.107 96.6997 41.8088 94.8446C33.5106 92.9888 25.9194 88.7906 19.9371 82.7476C13.9548 76.7052 9.83285 69.072 8.06096 60.7556C6.28906 52.4391 6.9417 43.7888 9.94135 35.8324C12.941 27.876 18.1616 20.9479 24.9829 15.8711C31.8041 10.7944 39.9393 7.78242 48.422 7.19312" stroke="white" stroke-width="3" stroke-linecap="round" stroke-linejoin="round"/>
<path d="M70.564 58.9476C69.3301 62.1236 67.324 64.9418 64.7271 67.1476C62.1303 69.3533 59.0246 70.877 55.6908 71.5808C52.3571 72.2844 48.9005 72.1464 45.6337 71.1785C42.3669 70.2106 39.3928 68.4437 36.9804 66.0376C34.5681 63.6314 32.7935 60.6619 31.8173 57.3975C30.841 54.1332 30.6938 50.677 31.389 47.3415C32.0842 44.0059 33.5999 40.8963 35.799 38.2937C37.998 35.6912 40.8111 33.6779 43.9838 32.4358" stroke="white" stroke-width="3" stroke-linecap="round" stroke-linejoin="round"/>
<path d="M51.5002 51.5008L68.5826 34.4185" stroke="#FEB534" stroke-width="3" stroke-linecap="round" stroke-linejoin="round"/>
<path d="M82.2484 37.8342L68.5825 34.4177L65.166 20.7518L78.8319 7.08594L82.2484 20.7518L95.9143 24.1683L82.2484 37.8342Z" stroke="#FEB534" stroke-width="3" stroke-linecap="round" stroke-linejoin="round"/>
</svg>
