<svg width="90" height="90" viewBox="0 0 90 90" fill="none" xmlns="http://www.w3.org/2000/svg">
<path d="M83.686 48.0789C83.0967 55.4854 80.3938 62.567 75.898 68.4825C71.4022 74.3981 65.3033 78.8987 58.3247 81.4493C51.3466 84.0005 43.7827 84.4948 36.5318 82.8738C29.281 81.2522 22.6479 77.5839 17.4206 72.3036C12.1933 67.0239 8.59163 60.3541 7.04336 53.0873C5.4951 45.8205 6.06537 38.262 8.68643 31.3098C11.3075 24.3576 15.8692 18.3039 21.8295 13.8679C27.7898 9.4319 34.8982 6.80009 42.3103 6.28516" stroke="#3C3843" stroke-width="3" stroke-linecap="round" stroke-linejoin="round"/>
<path d="M61.6577 51.5075C60.5795 54.2826 58.8266 56.7451 56.5575 58.6725C54.2884 60.5998 51.5747 61.9312 48.6617 62.5462C45.7488 63.161 42.7284 63.0404 39.8739 62.1946C37.0194 61.3489 34.4207 59.805 32.3128 57.7026C30.2049 55.6001 28.6543 53.0054 27.8013 50.153C26.9483 47.3007 26.8196 44.2807 27.4271 41.3662C28.0346 38.4516 29.359 35.7345 31.2805 33.4604C33.202 31.1863 35.66 29.4271 38.4323 28.3418" stroke="#3C3843" stroke-width="3" stroke-linecap="round" stroke-linejoin="round"/>
<path d="M45 45.0006L59.9263 30.0742" stroke="white" stroke-width="3" stroke-linecap="round" stroke-linejoin="round"/>
<path d="M71.8673 33.0588L59.9262 30.0736L56.9409 18.1325L68.882 6.19141L71.8673 18.1325L83.8083 21.1177L71.8673 33.0588Z" stroke="white" stroke-width="3" stroke-linecap="round" stroke-linejoin="round"/>
</svg>
