<svg width="90" height="90" viewBox="0 0 90 90" fill="none" xmlns="http://www.w3.org/2000/svg">
<path d="M83.686 48.079C83.0967 55.4855 80.3938 62.5672 75.898 68.4826C71.4022 74.3982 65.3033 78.8988 58.3247 81.4494C51.3466 84.0006 43.7827 84.495 36.5318 82.874C29.281 81.2524 22.6479 77.5841 17.4206 72.3037C12.1933 67.024 8.59163 60.3542 7.04336 53.0874C5.4951 45.8206 6.06537 38.2621 8.68643 31.3099C11.3075 24.3577 15.8692 18.304 21.8295 13.868C27.7898 9.43202 34.8982 6.80021 42.3103 6.28528" stroke="white" stroke-width="3" stroke-linecap="round" stroke-linejoin="round"/>
<path d="M61.6582 51.5076C60.58 54.2827 58.8271 56.7452 56.558 58.6726C54.2889 60.5999 51.5752 61.9313 48.6622 62.5463C45.7492 63.1611 42.7289 63.0405 39.8744 62.1947C37.0199 61.349 34.4212 59.8051 32.3133 57.7027C30.2054 55.6002 28.6548 53.0055 27.8018 50.1531C26.9487 47.3008 26.8201 44.2808 27.4276 41.3663C28.0351 38.4517 29.3595 35.7346 31.281 33.4605C33.2025 31.1865 35.6605 29.4272 38.4328 28.3419" stroke="white" stroke-width="3" stroke-linecap="round" stroke-linejoin="round"/>
<path d="M45 45.0007L59.9263 30.0743" stroke="#FEB534" stroke-width="3" stroke-linecap="round" stroke-linejoin="round"/>
<path d="M71.8677 33.0589L59.9267 30.0737L56.9414 18.1326L68.8825 6.19153L71.8677 18.1326L83.8088 21.1179L71.8677 33.0589Z" stroke="#FEB534" stroke-width="3" stroke-linecap="round" stroke-linejoin="round"/>
</svg>
