<svg width="154" height="25" viewBox="0 0 154 25" fill="none" xmlns="http://www.w3.org/2000/svg">
<path d="M71.6728 1.10254C73.768 1.10254 75.6796 1.55483 77.4076 2.45941C79.1357 3.36399 80.4641 4.6024 81.3929 6.17464L77.5048 8.54916C76.846 7.55843 76.0144 6.79385 75.01 6.25541C74.0164 5.7062 72.8932 5.4316 71.6404 5.4316C69.5775 5.4316 67.8657 6.1208 66.5049 7.4992C65.1549 8.87761 64.4799 10.6545 64.4799 12.8298C64.4799 15.0481 65.1603 16.8358 66.5211 18.1926C67.8819 19.5495 69.5883 20.2279 71.6404 20.2279C74.1676 20.2279 76.1386 19.1941 77.5534 17.1265L81.2471 19.7756C80.2103 21.2725 78.8657 22.4463 77.2132 23.297C75.5608 24.137 73.714 24.557 71.6728 24.557C69.9447 24.557 68.3409 24.2662 66.8613 23.6847C65.3817 23.0924 64.1235 22.2794 63.0867 21.2456C62.0499 20.2118 61.2344 18.9734 60.6404 17.5303C60.0572 16.0765 59.7656 14.5097 59.7656 12.8298C59.7656 11.1498 60.0572 9.58835 60.6404 8.14533C61.2344 6.69155 62.0499 5.44775 63.0867 4.41394C64.1235 3.38014 65.3817 2.57248 66.8613 1.99096C68.3409 1.39868 69.9447 1.10254 71.6728 1.10254Z" fill="white"/>
<path d="M92.3666 8.06445C94.8075 8.06445 96.8325 8.85058 98.4417 10.4228C100.062 11.9843 100.872 13.9442 100.872 16.3026C100.872 18.6609 100.062 20.6263 98.4417 22.1985C96.8325 23.76 94.8075 24.5407 92.3666 24.5407C89.9366 24.5407 87.917 23.76 86.3078 22.1985C84.6985 20.6263 83.8939 18.6609 83.8939 16.3026C83.8939 13.9442 84.6985 11.9843 86.3078 10.4228C87.917 8.85058 89.9366 8.06445 92.3666 8.06445ZM92.3666 11.9897C91.1678 11.9897 90.1742 12.3935 89.3858 13.2012C88.5974 14.0088 88.2032 15.0426 88.2032 16.3026C88.2032 17.5625 88.5974 18.5963 89.3858 19.404C90.1742 20.2117 91.1678 20.6155 92.3666 20.6155C93.5763 20.6155 94.5753 20.2117 95.3637 19.404C96.1521 18.5963 96.5463 17.5625 96.5463 16.3026C96.5463 15.0426 96.1521 14.0088 95.3637 13.2012C94.5753 12.3935 93.5763 11.9897 92.3666 11.9897Z" fill="white"/>
<path d="M111.275 8.06415C113.197 8.06415 114.736 8.74797 115.892 10.1156V0.875977H120.104V24.1366H115.973V22.4082C114.817 23.8297 113.251 24.5404 111.275 24.5404C109.104 24.5404 107.295 23.7543 105.848 22.182C104.401 20.6098 103.677 18.6499 103.677 16.3023C103.677 13.9547 104.401 11.9948 105.848 10.4225C107.295 8.85027 109.104 8.06415 111.275 8.06415ZM112.053 11.9894C110.843 11.9894 109.866 12.404 109.12 13.2332C108.375 14.0516 108.003 15.0746 108.003 16.3023C108.003 17.5299 108.375 18.5583 109.12 19.3875C109.866 20.206 110.843 20.6152 112.053 20.6152C113.251 20.6152 114.223 20.2113 114.969 19.4037C115.725 18.5853 116.103 17.5515 116.103 16.3023C116.103 15.0531 115.725 14.0247 114.969 13.217C114.223 12.3986 113.251 11.9894 112.053 11.9894Z" fill="white"/>
<path d="M131.842 8.06445C134.099 8.06445 135.935 8.82904 137.35 10.3582C138.765 11.8766 139.472 13.8527 139.472 16.2864C139.472 16.8249 139.445 17.2987 139.391 17.7079H128.261C128.467 18.7956 128.926 19.6086 129.638 20.147C130.362 20.6855 131.248 20.9547 132.295 20.9547C133.753 20.9547 135.076 20.454 136.264 19.4525L138.743 22.1662C136.993 23.7492 134.763 24.5407 132.052 24.5407C129.644 24.5407 127.684 23.7869 126.172 22.2793C124.66 20.7716 123.904 18.7956 123.904 16.351C123.904 13.8958 124.638 11.9035 126.107 10.3744C127.576 8.83442 129.487 8.06445 131.842 8.06445ZM131.809 11.6989C130.826 11.6989 130.038 11.9735 129.444 12.5227C128.861 13.0612 128.472 13.8311 128.278 14.8326H135.228C135.033 13.8204 134.644 13.045 134.061 12.5066C133.478 11.9681 132.727 11.6989 131.809 11.6989Z" fill="white"/>
<path d="M151.756 8.06445C152.599 8.06445 153.333 8.17753 153.959 8.40367L153.328 12.5873C152.572 12.2535 151.718 12.0866 150.768 12.0866C149.764 12.0866 148.959 12.3935 148.354 13.0073C147.76 13.6104 147.463 14.4773 147.463 15.608V24.1369H143.235V8.48444H147.334V10.1967C148.284 8.77519 149.758 8.06445 151.756 8.06445Z" fill="white"/>
<path d="M35.9096 8.06445C36.752 8.06445 37.4864 8.17753 38.1128 8.40367L37.481 12.5873C36.725 12.2535 35.8718 12.0866 34.9214 12.0866C33.917 12.0866 33.1124 12.3935 32.5076 13.0073C31.9136 13.6104 31.6166 14.4773 31.6166 15.608V24.1369H27.3883V8.48444H31.4869V10.1967C32.4374 8.77519 33.9116 8.06445 35.9096 8.06445Z" fill="#85A32A"/>
<path d="M48.2808 8.06445C50.7216 8.06445 52.7466 8.85058 54.3559 10.4228C55.9759 11.9843 56.7859 13.9442 56.7859 16.3026C56.7859 18.6609 55.9759 20.6263 54.3559 22.1985C52.7466 23.76 50.7216 24.5407 48.2808 24.5407C45.8508 24.5407 43.8311 23.76 42.2219 22.1985C40.6127 20.6263 39.8081 18.6609 39.8081 16.3026C39.8081 13.9442 40.6127 11.9843 42.2219 10.4228C43.8311 8.85058 45.8508 8.06445 48.2808 8.06445ZM48.2808 11.9897C47.082 11.9897 46.0884 12.3935 45.3 13.2012C44.5116 14.0088 44.1174 15.0426 44.1174 16.3026C44.1174 17.5625 44.5116 18.5963 45.3 19.404C46.0884 20.2117 47.082 20.6155 48.2808 20.6155C49.4904 20.6155 50.4894 20.2117 51.2778 19.404C52.0662 18.5963 52.4604 17.5625 52.4604 16.3026C52.4604 15.0426 52.0662 14.0088 51.2778 13.2012C50.4894 12.3935 49.4904 11.9897 48.2808 11.9897Z" fill="#85A32A"/>
<path fill-rule="evenodd" clip-rule="evenodd" d="M19.5189 2.45941C17.7909 1.55483 15.8793 1.10254 13.784 1.10254C12.056 1.10254 10.4522 1.39868 8.97257 1.99097C7.49295 2.57248 6.23473 3.38014 5.19792 4.41394C4.1611 5.44775 3.34569 6.69154 2.75168 8.14533C2.49793 8.77319 2.29938 9.42348 2.15603 10.0962L0.386475 11.8606L1.88656 13.3563C1.9284 14.4853 2.10574 15.5618 2.4186 16.5856L1.9079 18.5103L3.42209 18.9097C3.91596 19.7789 4.50792 20.5576 5.19792 21.2456C5.28581 21.3332 5.37528 21.4193 5.46636 21.5037L5.57676 23.1849L7.62529 23.0511C8.0519 23.2848 8.50099 23.4959 8.97257 23.6847C10.4522 24.2663 12.056 24.557 13.784 24.557C15.8253 24.557 17.6721 24.137 19.3245 23.2971C20.9769 22.4463 22.3216 21.2725 23.3584 19.7756L19.6647 17.1265C18.2499 19.1941 16.2789 20.2279 13.7516 20.2279C11.6996 20.2279 9.99318 19.5495 8.63236 18.1926C7.27154 16.8357 6.59113 15.0481 6.59113 12.8298C6.59113 10.6545 7.26614 8.87761 8.61616 7.4992C9.97698 6.1208 11.6888 5.43159 13.7516 5.43159C15.0044 5.43159 16.1277 5.7062 17.1213 6.25541C18.1257 6.79385 18.9573 7.55843 19.6161 8.54916L23.5042 6.17464C22.5754 4.6024 21.2469 3.36399 19.5189 2.45941Z" fill="#85A32A"/>
</svg>
